<svg id="圖層_1" data-name="圖層 1" xmlns="http://www.w3.org/2000/svg" viewBox="0 0 512 512"><defs><style>.cls-1{fill:#f2a43d;}.cls-2{fill:#fbb03b;}.cls-3{fill:#ffb864;}.cls-4{fill:#fff;}.cls-5{fill:#f15a24;}.cls-6{fill:#8cc63f;}.cls-7{fill:#3fa9f5;}.cls-8{fill:#ff0;}.cls-9{fill:#c69c6d;}.cls-10{fill:#e6e6e6;}.cls-11{fill:#e6e6e5;}.cls-12{fill:#e6e5e4;}.cls-13{fill:#e7e5e3;}.cls-14{fill:#e7e5e2;}.cls-15{fill:#e7e4e1;}.cls-16{fill:#e7e4e0;}.cls-17{fill:#e7e4df;}.cls-18{fill:#e8e3de;}.cls-19{fill:#e8e3dd;}.cls-20{fill:#e8e2dc;}.cls-21{fill:#e8e2db;}.cls-22{fill:#e8e2da;}.cls-23{fill:#e9e1d9;}.cls-24{fill:#e9e1d8;}.cls-25{fill:#e9e1d7;}.cls-26{fill:#e9e0d6;}.cls-27{fill:#e9e0d5;}.cls-28{fill:#e9e0d4;}.cls-29{fill:#eadfd3;}.cls-30{fill:#eadfd2;}.cls-31{fill:#eadfd1;}.cls-32{fill:#eaded0;}.cls-33{fill:#eadecf;}.cls-34{fill:#ebdece;}.cls-35{fill:#ebddcd;}.cls-36{fill:#ebddcc;}.cls-37{fill:#ebdccb;}.cls-38{fill:#ebdcca;}.cls-39{fill:#ecdcc9;}.cls-40{fill:#ecdbc8;}.cls-41{fill:#ecdbc7;}.cls-42{fill:#ecdbc6;}.cls-43{fill:#ecdac5;}.cls-44{fill:#eddac4;}.cls-45{fill:#eddac3;}.cls-46{fill:#edd9c2;}.cls-47{fill:#edd9c1;}.cls-48{fill:#edd9c0;}.cls-49{fill:#eed8bf;}.cls-50{fill:#eed8be;}.cls-51{fill:#eed7bd;}.cls-52{fill:#eed7bc;}.cls-53{fill:#eed7bb;}.cls-54{fill:#eed6ba;}.cls-55{fill:#efd6b9;}.cls-56{fill:#efd6b8;}.cls-57{fill:#efd5b7;}.cls-58{fill:#efd5b6;}.cls-59{fill:#efd5b5;}.cls-60{fill:#f0d4b4;}.cls-61{fill:#f0d4b3;}.cls-62{fill:#f0d4b2;}.cls-63{fill:#f0d3b1;}.cls-64{fill:#f0d3b0;}.cls-65{fill:#f1d3af;}.cls-66{fill:#f1d2ae;}.cls-67{fill:#f1d2ad;}.cls-68{fill:#f1d1ac;}.cls-69{fill:#f1d1ab;}.cls-70{fill:#f2d1aa;}.cls-71{fill:#f2d0a9;}.cls-72{fill:#f2d0a8;}.cls-73{fill:#f2d0a7;}.cls-74{fill:#f2cfa6;}.cls-75{fill:#f3cfa5;}.cls-76{fill:#f3cfa4;}.cls-77{fill:#f3cea3;}.cls-78{fill:#f3cea2;}.cls-79{fill:#f3cea1;}.cls-80{fill:#f3cda0;}.cls-81{fill:#f4cd9f;}.cls-82{fill:#f4cd9e;}.cls-83{fill:#f4cc9d;}.cls-84{fill:#f4cc9c;}.cls-85{fill:#f4cb9b;}.cls-86{fill:#f5cb9a;}.cls-87{fill:#f5cb99;}.cls-88{fill:#f5ca98;}.cls-89{fill:#f5ca97;}.cls-90{fill:#f5ca96;}.cls-91{fill:#f6c995;}.cls-92{fill:#f6c994;}.cls-93{fill:#f6c993;}.cls-94{fill:#f6c892;}.cls-95{fill:#f6c891;}.cls-96{fill:#f7c890;}.cls-97{fill:#f7c78f;}.cls-98{fill:#f7c78e;}.cls-99{fill:#f7c78d;}.cls-100{fill:#f7c68c;}.cls-101{fill:#f7c68b;}.cls-102{fill:#f8c58a;}.cls-103{fill:#f8c589;}.cls-104{fill:#f8c588;}.cls-105{fill:#f8c487;}.cls-106{fill:#f8c486;}.cls-107{fill:#f9c485;}.cls-108{fill:#f9c384;}.cls-109{fill:#f9c383;}.cls-110{fill:#f9c382;}.cls-111{fill:#f9c281;}.cls-112{fill:#fac280;}.cls-113{fill:#fac27f;}.cls-114{fill:#fac17e;}.cls-115{fill:#fac17d;}.cls-116{fill:#fac07c;}.cls-117{fill:#fbc07b;}.cls-118{fill:#fbc07a;}.cls-119{fill:#fbbf79;}.cls-120{fill:#fbbf78;}.cls-121{fill:#fbbf77;}.cls-122{fill:#fcbe76;}.cls-123{fill:#fcbe75;}.cls-124{fill:#fcbe74;}.cls-125{fill:#fcbd73;}.cls-126{fill:#fcbd72;}.cls-127{fill:#fcbd71;}.cls-128{fill:#fdbc70;}.cls-129{fill:#fdbc6f;}.cls-130{fill:#fdbc6e;}.cls-131{fill:#fdbb6d;}.cls-132{fill:#fdbb6c;}.cls-133{fill:#feba6b;}.cls-134{fill:#feba6a;}.cls-135{fill:#feba69;}.cls-136{fill:#feb968;}.cls-137{fill:#feb967;}.cls-138{fill:#ffb966;}.cls-139{fill:#ffb865;}</style></defs><title>Breakout clone_512</title><path class="cls-1" d="M8.466,479.539a26.535,26.535,0,0,0,26.618,26.452H380.175l-2.784-2.661L8.466,427.694Z" transform="translate(0 0)"/><polygon class="cls-2" points="8.466 427.694 377.391 503.33 8.466 150.657 8.466 427.694"/><path class="cls-1" d="M508.371,479.539V32.461A26.536,26.536,0,0,0,481.753,6.009H458.884L414.266,505.991h67.487A26.535,26.535,0,0,0,508.371,479.539Z" transform="translate(0 0)"/><polygon class="cls-2" points="192.353 6.009 413.688 505.991 414.266 505.991 458.884 6.009 192.353 6.009"/><path class="cls-3" d="M192.353,6.009H35.084A26.536,26.536,0,0,0,8.466,32.461v118.2L380.175,505.991h33.513Z" transform="translate(0 0)"/><path class="cls-4" d="M479.334,512H32.666A32.6,32.6,0,0,1,0,479.54V32.461A32.6,32.6,0,0,1,32.666,0H479.334A32.6,32.6,0,0,1,512,32.461V479.54A32.6,32.6,0,0,1,479.334,512ZM32.666,12.019A20.531,20.531,0,0,0,12.094,32.461V479.54a20.53,20.53,0,0,0,20.572,20.441H479.334a20.53,20.53,0,0,0,20.572-20.441V32.461a20.531,20.531,0,0,0-20.572-20.443Z" transform="translate(0 0)"/><rect class="cls-5" x="41.994" y="42.027" width="141.637" height="48.013" rx="4.529" ry="4.529"/><path d="M172.76,96.041H52.865A16.891,16.891,0,0,1,35.992,79.169V52.9A16.891,16.891,0,0,1,52.865,36.025h119.9A16.892,16.892,0,0,1,189.633,52.9V79.169A16.892,16.892,0,0,1,172.76,96.041ZM52.865,48.029A4.874,4.874,0,0,0,48,52.9V79.169a4.874,4.874,0,0,0,4.869,4.869h119.9a4.875,4.875,0,0,0,4.869-4.869V52.9a4.875,4.875,0,0,0-4.869-4.869Z" transform="translate(0 0)"/><rect class="cls-5" x="115.363" y="91.09" width="141.637" height="48.013" rx="4.529" ry="4.529"/><path d="M246.13,145.1h-119.9a16.891,16.891,0,0,1-16.872-16.872V101.961a16.891,16.891,0,0,1,16.872-16.872h119.9A16.892,16.892,0,0,1,263,101.961v26.271A16.892,16.892,0,0,1,246.13,145.1Zm-119.9-48.013a4.874,4.874,0,0,0-4.869,4.869v26.271a4.874,4.874,0,0,0,4.869,4.869h119.9A4.875,4.875,0,0,0,251,128.232V101.961a4.875,4.875,0,0,0-4.869-4.869Z" transform="translate(0 0)"/><rect class="cls-6" x="257" y="91.09" width="141.637" height="48.013" rx="4.529" ry="4.529"/><path d="M387.767,145.1h-119.9A16.892,16.892,0,0,1,251,128.232V101.961a16.892,16.892,0,0,1,16.872-16.872h119.9a16.892,16.892,0,0,1,16.872,16.872v26.271A16.892,16.892,0,0,1,387.767,145.1Zm-119.9-48.013A4.875,4.875,0,0,0,263,101.961v26.271a4.875,4.875,0,0,0,4.869,4.869h119.9a4.875,4.875,0,0,0,4.869-4.869V101.961a4.875,4.875,0,0,0-4.869-4.869Z" transform="translate(0 0)"/><rect class="cls-6" x="184.982" y="43.077" width="141.637" height="48.013" rx="4.529" ry="4.529"/><path d="M315.748,97.092h-119.9A16.892,16.892,0,0,1,178.98,80.219V53.948a16.892,16.892,0,0,1,16.872-16.872h119.9A16.892,16.892,0,0,1,332.62,53.948V80.219A16.892,16.892,0,0,1,315.748,97.092Zm-119.9-48.013a4.875,4.875,0,0,0-4.869,4.869V80.219a4.875,4.875,0,0,0,4.869,4.869h119.9a4.875,4.875,0,0,0,4.869-4.869V53.948a4.875,4.875,0,0,0-4.869-4.869Z" transform="translate(0 0)"/><rect class="cls-7" x="326.619" y="43.077" width="141.637" height="48.013" rx="4.529" ry="4.529"/><path d="M457.385,97.092H337.49a16.892,16.892,0,0,1-16.872-16.872V53.948A16.892,16.892,0,0,1,337.49,37.076h119.9a16.892,16.892,0,0,1,16.872,16.872V80.219A16.892,16.892,0,0,1,457.385,97.092ZM337.49,49.079a4.875,4.875,0,0,0-4.869,4.869V80.219a4.875,4.875,0,0,0,4.869,4.869h119.9a4.875,4.875,0,0,0,4.869-4.869V53.948a4.875,4.875,0,0,0-4.869-4.869Z" transform="translate(0 0)"/><rect class="cls-8" x="43.344" y="139.103" width="141.637" height="48.013" rx="4.529" ry="4.529"/><path d="M174.111,193.117H54.215a16.891,16.891,0,0,1-16.872-16.872V149.973A16.891,16.891,0,0,1,54.215,133.1h119.9a16.892,16.892,0,0,1,16.872,16.872v26.271A16.892,16.892,0,0,1,174.111,193.117ZM54.215,145.1a4.874,4.874,0,0,0-4.869,4.869v26.271a4.874,4.874,0,0,0,4.869,4.869h119.9a4.875,4.875,0,0,0,4.869-4.869V149.973a4.875,4.875,0,0,0-4.869-4.869Z" transform="translate(0 0)"/><rect class="cls-5" x="184.982" y="139.103" width="141.637" height="48.013" rx="4.529" ry="4.529"/><path d="M315.748,193.117h-119.9a16.892,16.892,0,0,1-16.872-16.872V149.973A16.892,16.892,0,0,1,195.852,133.1h119.9a16.892,16.892,0,0,1,16.872,16.872v26.271A16.892,16.892,0,0,1,315.748,193.117ZM195.852,145.1a4.875,4.875,0,0,0-4.869,4.869v26.271a4.875,4.875,0,0,0,4.869,4.869h119.9a4.875,4.875,0,0,0,4.869-4.869V149.973a4.875,4.875,0,0,0-4.869-4.869Z" transform="translate(0 0)"/><rect class="cls-8" x="151.373" y="189.516" width="141.637" height="48.013" rx="4.529" ry="4.529"/><path d="M282.139,243.53h-119.9a16.892,16.892,0,0,1-16.872-16.872V200.387a16.892,16.892,0,0,1,16.872-16.872h119.9a16.892,16.892,0,0,1,16.872,16.872v26.271A16.892,16.892,0,0,1,282.139,243.53Zm-119.9-48.013a4.875,4.875,0,0,0-4.869,4.869v26.271a4.875,4.875,0,0,0,4.869,4.869h119.9a4.875,4.875,0,0,0,4.869-4.869V200.387a4.875,4.875,0,0,0-4.869-4.869Z" transform="translate(0 0)"/><rect class="cls-6" x="326.619" y="139.103" width="141.637" height="48.013" rx="4.529" ry="4.529"/><path d="M457.385,193.117H337.49a16.892,16.892,0,0,1-16.872-16.872V149.973A16.892,16.892,0,0,1,337.49,133.1h119.9a16.892,16.892,0,0,1,16.872,16.872v26.271A16.892,16.892,0,0,1,457.385,193.117ZM337.49,145.1a4.875,4.875,0,0,0-4.869,4.869v26.271a4.875,4.875,0,0,0,4.869,4.869h119.9a4.875,4.875,0,0,0,4.869-4.869V149.973a4.875,4.875,0,0,0-4.869-4.869Z" transform="translate(0 0)"/><rect class="cls-9" x="235.395" y="448.784" width="184.849" height="24.006" rx="3.5" ry="3.5"/><path d="M411.841,478.792H243.8a14.42,14.42,0,0,1-14.4-14.4v-7.2a14.42,14.42,0,0,1,14.4-14.4H411.841a14.42,14.42,0,0,1,14.4,14.4v7.2A14.42,14.42,0,0,1,411.841,478.792ZM243.8,454.786a2.433,2.433,0,0,0-2.4,2.4v7.2a2.433,2.433,0,0,0,2.4,2.4H411.841a2.433,2.433,0,0,0,2.4-2.4v-7.2a2.433,2.433,0,0,0-2.4-2.4Z" transform="translate(0 0)"/><path class="cls-10" d="M256.153,330.492c6.826-11.628,21.295-15.236,32.317-8.059s14.425,22.42,7.6,34.048-21.295,15.236-32.317,8.059S249.327,342.12,256.153,330.492Z" transform="translate(0 0)"/><path class="cls-11" d="M256.648,331.2c6.8-11.58,21.208-15.174,32.186-8.027S303.2,345.5,296.4,357.08s-21.208,15.174-32.186,8.027S249.85,342.778,256.648,331.2Z" transform="translate(0 0)"/><path class="cls-12" d="M257.143,331.9c6.77-11.533,21.121-15.112,32.054-7.994s14.308,22.237,7.538,33.77-21.121,15.112-32.054,7.994S250.373,343.437,257.143,331.9Z" transform="translate(0 0)"/><path class="cls-13" d="M257.639,332.61c6.742-11.485,21.034-15.049,31.922-7.961s14.249,22.146,7.507,33.631-21.034,15.049-31.922,7.961S250.9,344.1,257.639,332.61Z" transform="translate(0 0)"/><path class="cls-14" d="M258.134,333.316c6.714-11.438,20.947-14.987,31.79-7.928s14.19,22.054,7.476,33.492-20.947,14.987-31.79,7.928S251.42,344.754,258.134,333.316Z" transform="translate(0 0)"/><path class="cls-15" d="M258.629,334.022c6.686-11.39,20.86-14.925,31.658-7.9s14.131,21.963,7.445,33.353-20.86,14.925-31.658,7.9S251.943,345.412,258.629,334.022Z" transform="translate(0 0)"/><path class="cls-16" d="M259.125,334.727c6.659-11.343,20.773-14.863,31.526-7.862s14.072,21.871,7.414,33.214-20.773,14.863-31.526,7.862S252.466,346.07,259.125,334.727Z" transform="translate(0 0)"/><path class="cls-17" d="M259.62,335.433c6.631-11.3,20.687-14.8,31.395-7.829s14.013,21.78,7.383,33.075-20.687,14.8-31.395,7.829S252.99,346.729,259.62,335.433Z" transform="translate(0 0)"/><path class="cls-18" d="M260.116,336.139c6.6-11.248,20.6-14.739,31.263-7.8s13.954,21.688,7.352,32.936-20.6,14.739-31.263,7.8S253.513,347.387,260.116,336.139Z" transform="translate(0 0)"/><path class="cls-19" d="M260.611,336.845c6.575-11.2,20.513-14.677,31.131-7.764s13.9,21.6,7.321,32.8-20.513,14.677-31.131,7.764S254.036,348.046,260.611,336.845Z" transform="translate(0 0)"/><path class="cls-20" d="M261.106,337.551c6.547-11.153,20.426-14.614,31-7.731s13.837,21.505,7.29,32.659-20.426,14.614-31,7.731S254.559,348.7,261.106,337.551Z" transform="translate(0 0)"/><path class="cls-21" d="M261.6,338.257c6.519-11.106,20.339-14.552,30.867-7.7s13.778,21.414,7.259,32.52-20.339,14.552-30.867,7.7S255.082,349.363,261.6,338.257Z" transform="translate(0 0)"/><path class="cls-22" d="M262.1,338.963c6.491-11.058,20.252-14.49,30.735-7.665s13.719,21.323,7.228,32.381-20.252,14.49-30.735,7.665S255.606,350.021,262.1,338.963Z" transform="translate(0 0)"/><path class="cls-23" d="M262.592,339.669c6.464-11.011,20.165-14.428,30.6-7.632s13.66,21.231,7.2,32.242-20.165,14.428-30.6,7.632S256.129,350.679,262.592,339.669Z" transform="translate(0 0)"/><path class="cls-24" d="M263.088,340.374c6.436-10.963,20.078-14.366,30.472-7.6s13.6,21.14,7.166,32.1-20.078,14.366-30.472,7.6S256.652,351.338,263.088,340.374Z" transform="translate(0 0)"/><path class="cls-25" d="M263.583,341.08c6.408-10.916,19.992-14.3,30.34-7.566s13.542,21.048,7.135,31.964-19.992,14.3-30.34,7.566S257.175,352,263.583,341.08Z" transform="translate(0 0)"/><path class="cls-26" d="M264.079,341.786c6.38-10.869,19.9-14.241,30.208-7.533s13.484,20.957,7.1,31.825-19.9,14.241-30.208,7.533S257.7,352.655,264.079,341.786Z" transform="translate(0 0)"/><path class="cls-27" d="M264.574,342.492c6.352-10.821,19.818-14.179,30.076-7.5s13.425,20.865,7.073,31.686-19.818,14.179-30.076,7.5S258.222,353.313,264.574,342.492Z" transform="translate(0 0)"/><path class="cls-28" d="M265.069,343.2c6.324-10.774,19.731-14.117,29.944-7.468s13.366,20.774,7.042,31.547-19.731,14.117-29.944,7.468S258.745,353.972,265.069,343.2Z" transform="translate(0 0)"/><path class="cls-29" d="M265.565,343.9c6.3-10.726,19.644-14.055,29.812-7.435s13.307,20.682,7.011,31.409-19.644,14.055-29.812,7.435S259.268,354.63,265.565,343.9Z" transform="translate(0 0)"/><path class="cls-30" d="M266.06,344.61c6.269-10.679,19.557-13.993,29.681-7.4s13.248,20.591,6.98,31.27-19.557,13.993-29.681,7.4S259.791,355.288,266.06,344.61Z" transform="translate(0 0)"/><path class="cls-31" d="M266.555,345.315c6.241-10.631,19.47-13.931,29.549-7.369s13.189,20.5,6.949,31.131-19.47,13.931-29.549,7.369S260.315,355.947,266.555,345.315Z" transform="translate(0 0)"/><path class="cls-32" d="M267.051,346.021c6.213-10.584,19.383-13.868,29.417-7.336s13.131,20.408,6.918,30.992S284,383.545,273.968,377.013,260.838,356.605,267.051,346.021Z" transform="translate(0 0)"/><path class="cls-33" d="M267.546,346.727c6.185-10.537,19.3-13.806,29.285-7.3s13.072,20.316,6.887,30.853-19.3,13.806-29.285,7.3S261.361,357.264,267.546,346.727Z" transform="translate(0 0)"/><path class="cls-34" d="M268.042,347.433c6.157-10.489,19.21-13.744,29.153-7.27s13.013,20.225,6.856,30.714-19.21,13.744-29.153,7.27S261.884,357.922,268.042,347.433Z" transform="translate(0 0)"/><path class="cls-35" d="M268.537,348.139c6.129-10.442,19.123-13.682,29.021-7.237s12.954,20.133,6.824,30.575-19.123,13.682-29.021,7.237S262.407,358.581,268.537,348.139Z" transform="translate(0 0)"/><path class="cls-36" d="M269.032,348.845c6.1-10.394,19.036-13.62,28.889-7.2s12.9,20.042,6.793,30.436-19.036,13.62-28.889,7.2S262.931,359.239,269.032,348.845Z" transform="translate(0 0)"/><path class="cls-37" d="M269.528,349.551c6.074-10.347,18.949-13.558,28.758-7.172s12.836,19.95,6.762,30.3-18.949,13.558-28.758,7.172S263.454,359.9,269.528,349.551Z" transform="translate(0 0)"/><path class="cls-38" d="M270.023,350.257c6.046-10.3,18.862-13.5,28.626-7.139s12.777,19.859,6.731,30.158-18.862,13.5-28.626,7.139S263.977,360.556,270.023,350.257Z" transform="translate(0 0)"/><path class="cls-39" d="M270.518,350.962c6.018-10.252,18.775-13.433,28.494-7.106s12.719,19.768,6.7,30.019-18.775,13.433-28.494,7.106S264.5,361.214,270.518,350.962Z" transform="translate(0 0)"/><path class="cls-40" d="M271.014,351.668c5.99-10.2,18.688-13.371,28.362-7.073s12.66,19.676,6.669,29.881-18.688,13.371-28.362,7.073S265.024,361.873,271.014,351.668Z" transform="translate(0 0)"/><path class="cls-41" d="M271.509,352.374c5.962-10.157,18.6-13.309,28.23-7.04s12.6,19.585,6.638,29.742-18.6,13.309-28.23,7.04S265.547,362.531,271.509,352.374Z" transform="translate(0 0)"/><path class="cls-42" d="M272,353.08c5.935-10.11,18.515-13.247,28.1-7.007s12.542,19.493,6.607,29.6-18.515,13.247-28.1,7.007S266.07,363.19,272,353.08Z" transform="translate(0 0)"/><path class="cls-43" d="M272.5,353.786c5.907-10.062,18.428-13.185,27.966-6.974s12.483,19.4,6.576,29.464-18.428,13.185-27.966,6.974S266.593,363.848,272.5,353.786Z" transform="translate(0 0)"/><path class="cls-44" d="M273,354.492c5.879-10.015,18.341-13.123,27.835-6.942s12.424,19.31,6.545,29.325S289.035,390,279.541,383.817,267.116,364.506,273,354.492Z" transform="translate(0 0)"/><path class="cls-45" d="M273.491,355.2c5.851-9.967,18.254-13.06,27.7-6.909s12.365,19.219,6.514,29.186-18.254,13.06-27.7,6.909S267.64,365.165,273.491,355.2Z" transform="translate(0 0)"/><path class="cls-46" d="M273.986,355.9c5.823-9.92,18.167-13,27.571-6.876s12.307,19.127,6.483,29.047-18.167,13-27.571,6.876S268.163,365.823,273.986,355.9Z" transform="translate(0 0)"/><path class="cls-47" d="M274.481,356.609c5.8-9.872,18.08-12.936,27.439-6.843s12.248,19.036,6.452,28.908-18.08,12.936-27.439,6.843S268.686,366.482,274.481,356.609Z" transform="translate(0 0)"/><path class="cls-48" d="M274.977,357.315c5.767-9.825,17.993-12.874,27.307-6.81s12.189,18.944,6.421,28.769-17.993,12.874-27.307,6.81S269.209,367.14,274.977,357.315Z" transform="translate(0 0)"/><path class="cls-49" d="M275.472,358.021c5.74-9.778,17.906-12.812,27.175-6.777s12.13,18.853,6.39,28.63-17.906,12.812-27.175,6.777S269.733,367.8,275.472,358.021Z" transform="translate(0 0)"/><path class="cls-50" d="M275.968,358.727c5.712-9.73,17.82-12.75,27.044-6.744s12.071,18.761,6.359,28.491-17.82,12.75-27.044,6.744S270.256,368.457,275.968,358.727Z" transform="translate(0 0)"/><path class="cls-51" d="M276.463,359.433c5.684-9.683,17.733-12.687,26.912-6.711s12.012,18.67,6.328,28.353-17.733,12.687-26.912,6.711S270.779,369.116,276.463,359.433Z" transform="translate(0 0)"/><path class="cls-52" d="M276.958,360.139c5.656-9.635,17.646-12.625,26.78-6.678s11.953,18.578,6.3,28.214-17.646,12.625-26.78,6.678S271.3,369.774,276.958,360.139Z" transform="translate(0 0)"/><path class="cls-53" d="M277.454,360.845c5.628-9.588,17.559-12.563,26.648-6.646s11.895,18.487,6.266,28.075-17.559,12.563-26.648,6.646S271.825,370.432,277.454,360.845Z" transform="translate(0 0)"/><path class="cls-54" d="M277.949,361.551c5.6-9.54,17.472-12.5,26.516-6.613s11.836,18.4,6.235,27.936-17.472,12.5-26.516,6.613S272.349,371.091,277.949,361.551Z" transform="translate(0 0)"/><path class="cls-55" d="M278.444,362.256c5.573-9.493,17.385-12.439,26.384-6.58s11.777,18.3,6.2,27.8-17.385,12.439-26.384,6.58S272.872,371.749,278.444,362.256Z" transform="translate(0 0)"/><path class="cls-56" d="M278.94,362.962c5.545-9.445,17.3-12.377,26.252-6.547s11.718,18.213,6.173,27.658-17.3,12.377-26.252,6.547S273.4,372.408,278.94,362.962Z" transform="translate(0 0)"/><path class="cls-57" d="M279.435,363.668c5.517-9.4,17.211-12.314,26.121-6.514s11.659,18.121,6.142,27.519-17.211,12.314-26.121,6.514S273.918,373.066,279.435,363.668Z" transform="translate(0 0)"/><path class="cls-58" d="M279.93,364.374c5.489-9.351,17.125-12.252,25.989-6.481s11.6,18.03,6.111,27.38-17.125,12.252-25.989,6.481S274.441,373.725,279.93,364.374Z" transform="translate(0 0)"/><path class="cls-59" d="M280.426,365.08c5.461-9.3,17.038-12.19,25.857-6.448s11.542,17.938,6.08,27.241-17.038,12.19-25.857,6.448S274.965,374.383,280.426,365.08Z" transform="translate(0 0)"/><path class="cls-60" d="M280.921,365.786c5.433-9.256,16.951-12.128,25.725-6.415s11.483,17.847,6.049,27.1-16.951,12.128-25.725,6.415S275.488,375.041,280.921,365.786Z" transform="translate(0 0)"/><path class="cls-61" d="M281.417,366.492c5.405-9.208,16.864-12.066,25.593-6.383s11.424,17.755,6.018,26.963-16.864,12.066-25.593,6.383S276.011,375.7,281.417,366.492Z" transform="translate(0 0)"/><path class="cls-62" d="M281.912,367.2c5.378-9.161,16.777-12,25.461-6.35s11.365,17.664,5.987,26.825-16.777,12-25.461,6.35S276.534,376.358,281.912,367.2Z" transform="translate(0 0)"/><path class="cls-63" d="M282.407,367.9c5.35-9.113,16.69-11.941,25.329-6.317s11.306,17.572,5.956,26.686-16.69,11.941-25.329,6.317S277.058,377.017,282.407,367.9Z" transform="translate(0 0)"/><path class="cls-64" d="M282.9,368.609c5.322-9.066,16.6-11.879,25.2-6.284s11.247,17.481,5.925,26.547-16.6,11.879-25.2,6.284S277.581,377.675,282.9,368.609Z" transform="translate(0 0)"/><path class="cls-65" d="M283.4,369.315c5.294-9.018,16.516-11.817,25.066-6.251s11.188,17.389,5.894,26.408-16.516,11.817-25.066,6.251S278.1,378.334,283.4,369.315Z" transform="translate(0 0)"/><path class="cls-66" d="M283.893,370.021c5.266-8.971,16.43-11.755,24.934-6.218s11.13,17.3,5.863,26.269-16.43,11.755-24.934,6.218S278.627,378.992,283.893,370.021Z" transform="translate(0 0)"/><path class="cls-67" d="M284.389,370.727c5.238-8.924,16.343-11.693,24.8-6.185s11.071,17.206,5.832,26.13-16.343,11.693-24.8,6.185S279.15,379.65,284.389,370.727Z" transform="translate(0 0)"/><path class="cls-68" d="M284.884,371.433c5.211-8.876,16.256-11.631,24.67-6.152s11.012,17.115,5.8,25.991-16.256,11.631-24.67,6.152S279.674,380.309,284.884,371.433Z" transform="translate(0 0)"/><path class="cls-69" d="M285.38,372.139c5.183-8.829,16.169-11.569,24.538-6.119s10.953,17.023,5.77,25.852-16.169,11.569-24.538,6.119S280.2,380.967,285.38,372.139Z" transform="translate(0 0)"/><path class="cls-70" d="M285.875,372.844c5.155-8.781,16.082-11.506,24.407-6.087s10.894,16.932,5.739,25.713-16.082,11.506-24.407,6.087S280.72,381.626,285.875,372.844Z" transform="translate(0 0)"/><path class="cls-71" d="M286.37,373.55c5.127-8.734,16-11.444,24.275-6.054s10.835,16.841,5.708,25.574-16,11.444-24.275,6.054S281.243,382.284,286.37,373.55Z" transform="translate(0 0)"/><path class="cls-72" d="M286.866,374.256c5.1-8.686,15.908-11.382,24.143-6.021s10.776,16.749,5.677,25.435-15.908,11.382-24.143,6.021S281.767,382.943,286.866,374.256Z" transform="translate(0 0)"/><path class="cls-73" d="M287.361,374.962c5.071-8.639,15.821-11.32,24.011-5.988s10.718,16.658,5.646,25.3-15.821,11.32-24.011,5.988S282.29,383.6,287.361,374.962Z" transform="translate(0 0)"/><path class="cls-74" d="M287.856,375.668c5.043-8.592,15.734-11.258,23.879-5.955s10.659,16.566,5.615,25.158-15.734,11.258-23.879,5.955S282.813,384.259,287.856,375.668Z" transform="translate(0 0)"/><path class="cls-75" d="M288.352,376.374c5.016-8.544,15.648-11.2,23.747-5.922s10.6,16.475,5.584,25.019-15.648,11.2-23.747,5.922S283.336,384.918,288.352,376.374Z" transform="translate(0 0)"/><path class="cls-76" d="M288.847,377.08c4.988-8.5,15.561-11.133,23.615-5.889s10.541,16.383,5.553,24.88S302.455,407.2,294.4,401.959,283.859,385.576,288.847,377.08Z" transform="translate(0 0)"/><path class="cls-77" d="M289.343,377.786c4.96-8.449,15.474-11.071,23.484-5.856s10.482,16.292,5.522,24.741-15.474,11.071-23.484,5.856S284.383,386.235,289.343,377.786Z" transform="translate(0 0)"/><path class="cls-78" d="M289.838,378.491c4.932-8.4,15.387-11.009,23.352-5.824s10.423,16.2,5.491,24.6-15.387,11.009-23.352,5.824S284.906,386.893,289.838,378.491Z" transform="translate(0 0)"/><path class="cls-79" d="M290.333,379.2c4.9-8.354,15.3-10.947,23.22-5.791s10.364,16.109,5.46,24.463-15.3,10.947-23.22,5.791S285.429,387.552,290.333,379.2Z" transform="translate(0 0)"/><path class="cls-80" d="M290.829,379.9a16.3,16.3,0,0,1,23.088-5.758c7.875,5.127,10.306,16.017,5.429,24.324a16.3,16.3,0,0,1-23.088,5.758C288.383,399.1,285.952,388.21,290.829,379.9Z" transform="translate(0 0)"/><path class="cls-81" d="M291.324,380.609a16.2,16.2,0,0,1,22.956-5.725c7.83,5.1,10.247,15.926,5.4,24.185a16.2,16.2,0,0,1-22.956,5.725C288.892,399.7,286.476,388.868,291.324,380.609Z" transform="translate(0 0)"/><path class="cls-82" d="M291.819,381.315a16.109,16.109,0,0,1,22.824-5.692c7.785,5.068,10.188,15.834,5.367,24.046a16.109,16.109,0,0,1-22.824,5.692C289.4,400.293,287,389.527,291.819,381.315Z" transform="translate(0 0)"/><path class="cls-83" d="M292.315,382.021a16.016,16.016,0,0,1,22.693-5.659c7.74,5.039,10.129,15.743,5.336,23.907a16.016,16.016,0,0,1-22.693,5.659C289.911,400.889,287.522,390.185,292.315,382.021Z" transform="translate(0 0)"/><path class="cls-84" d="M292.81,382.727a15.923,15.923,0,0,1,22.561-5.626c7.695,5.01,10.07,15.651,5.305,23.769a15.923,15.923,0,0,1-22.561,5.626C290.42,401.485,288.045,390.844,292.81,382.727Z" transform="translate(0 0)"/><path class="cls-85" d="M293.306,383.432a15.83,15.83,0,0,1,22.429-5.593c7.65,4.981,10.011,15.56,5.274,23.63a15.83,15.83,0,0,1-22.429,5.593C290.93,402.082,288.568,391.5,293.306,383.432Z" transform="translate(0 0)"/><path class="cls-86" d="M293.8,384.138a15.737,15.737,0,0,1,22.3-5.561c7.605,4.951,9.953,15.468,5.243,23.491a15.737,15.737,0,0,1-22.3,5.561C291.439,402.678,289.092,392.161,293.8,384.138Z" transform="translate(0 0)"/><path class="cls-87" d="M294.3,384.844a15.644,15.644,0,0,1,22.165-5.528c7.56,4.922,9.894,15.377,5.212,23.352a15.644,15.644,0,0,1-22.165,5.528C291.948,403.274,289.615,392.819,294.3,384.844Z" transform="translate(0 0)"/><path class="cls-88" d="M294.792,385.55a15.551,15.551,0,0,1,22.033-5.495c7.515,4.893,9.835,15.286,5.181,23.213a15.551,15.551,0,0,1-22.033,5.495C292.458,403.87,290.138,393.478,294.792,385.55Z" transform="translate(0 0)"/><path class="cls-89" d="M295.287,386.256a15.458,15.458,0,0,1,21.9-5.462c7.47,4.863,9.776,15.194,5.15,23.074a15.458,15.458,0,0,1-21.9,5.462C292.967,404.467,290.661,394.136,295.287,386.256Z" transform="translate(0 0)"/><path class="cls-90" d="M295.782,386.962a15.365,15.365,0,0,1,21.77-5.429c7.425,4.834,9.717,15.1,5.119,22.935A15.365,15.365,0,0,1,300.9,409.9C293.476,405.063,291.185,394.794,295.782,386.962Z" transform="translate(0 0)"/><path class="cls-91" d="M296.278,387.668a15.271,15.271,0,0,1,21.638-5.4,17.077,17.077,0,0,1,5.088,22.8,15.271,15.271,0,0,1-21.638,5.4A17.077,17.077,0,0,1,296.278,387.668Z" transform="translate(0 0)"/><path class="cls-92" d="M296.773,388.374a15.178,15.178,0,0,1,21.506-5.363,16.973,16.973,0,0,1,5.057,22.657,15.178,15.178,0,0,1-21.506,5.363A16.973,16.973,0,0,1,296.773,388.374Z" transform="translate(0 0)"/><path class="cls-93" d="M297.268,389.079a15.085,15.085,0,0,1,21.374-5.33,16.869,16.869,0,0,1,5.026,22.518,15.085,15.085,0,0,1-21.374,5.33A16.869,16.869,0,0,1,297.268,389.079Z" transform="translate(0 0)"/><path class="cls-94" d="M297.764,389.785a14.992,14.992,0,0,1,21.242-5.3,16.765,16.765,0,0,1,5,22.379,14.992,14.992,0,0,1-21.242,5.3A16.765,16.765,0,0,1,297.764,389.785Z" transform="translate(0 0)"/><path class="cls-95" d="M298.259,390.491a14.9,14.9,0,0,1,21.11-5.265,16.661,16.661,0,0,1,4.964,22.241,14.9,14.9,0,0,1-21.11,5.265A16.661,16.661,0,0,1,298.259,390.491Z" transform="translate(0 0)"/><path class="cls-96" d="M298.755,391.2a14.806,14.806,0,0,1,20.978-5.232,16.557,16.557,0,0,1,4.933,22.1,14.806,14.806,0,0,1-20.978,5.232A16.557,16.557,0,0,1,298.755,391.2Z" transform="translate(0 0)"/><path class="cls-97" d="M299.25,391.9a14.713,14.713,0,0,1,20.847-5.2,16.453,16.453,0,0,1,4.9,21.963,14.713,14.713,0,0,1-20.847,5.2A16.453,16.453,0,0,1,299.25,391.9Z" transform="translate(0 0)"/><path class="cls-98" d="M299.745,392.609a14.62,14.62,0,0,1,20.715-5.166,16.349,16.349,0,0,1,4.871,21.824,14.62,14.62,0,0,1-20.715,5.166A16.349,16.349,0,0,1,299.745,392.609Z" transform="translate(0 0)"/><path class="cls-99" d="M300.241,393.315a14.527,14.527,0,0,1,20.583-5.133,16.245,16.245,0,0,1,4.84,21.685A14.527,14.527,0,0,1,305.081,415,16.245,16.245,0,0,1,300.241,393.315Z" transform="translate(0 0)"/><path class="cls-100" d="M300.736,394.021a14.434,14.434,0,0,1,20.451-5.1A16.141,16.141,0,0,1,326,410.466a14.434,14.434,0,0,1-20.451,5.1A16.141,16.141,0,0,1,300.736,394.021Z" transform="translate(0 0)"/><path class="cls-101" d="M301.231,394.726a14.341,14.341,0,0,1,20.319-5.067,16.037,16.037,0,0,1,4.778,21.407,14.341,14.341,0,0,1-20.319,5.067A16.037,16.037,0,0,1,301.231,394.726Z" transform="translate(0 0)"/><path class="cls-102" d="M301.727,395.432a14.248,14.248,0,0,1,20.187-5.034,15.933,15.933,0,0,1,4.747,21.268,14.248,14.248,0,0,1-20.187,5.034A15.933,15.933,0,0,1,301.727,395.432Z" transform="translate(0 0)"/><path class="cls-103" d="M302.222,396.138a14.155,14.155,0,0,1,20.056-5,15.829,15.829,0,0,1,4.716,21.129,14.155,14.155,0,0,1-20.056,5A15.829,15.829,0,0,1,302.222,396.138Z" transform="translate(0 0)"/><path class="cls-104" d="M302.718,396.844a14.062,14.062,0,0,1,19.924-4.969,15.725,15.725,0,0,1,4.685,20.99,14.062,14.062,0,0,1-19.924,4.969A15.725,15.725,0,0,1,302.718,396.844Z" transform="translate(0 0)"/><path class="cls-105" d="M303.213,397.55A13.969,13.969,0,0,1,323,392.614a15.621,15.621,0,0,1,4.654,20.851,13.969,13.969,0,0,1-19.792,4.936A15.621,15.621,0,0,1,303.213,397.55Z" transform="translate(0 0)"/><path class="cls-106" d="M303.708,398.256a13.876,13.876,0,0,1,19.66-4.9,15.516,15.516,0,0,1,4.623,20.713,13.876,13.876,0,0,1-19.66,4.9A15.516,15.516,0,0,1,303.708,398.256Z" transform="translate(0 0)"/><path class="cls-107" d="M304.2,398.962a13.783,13.783,0,0,1,19.528-4.87,15.412,15.412,0,0,1,4.592,20.574,13.783,13.783,0,0,1-19.528,4.87A15.412,15.412,0,0,1,304.2,398.962Z" transform="translate(0 0)"/><path class="cls-108" d="M304.7,399.668a13.69,13.69,0,0,1,19.4-4.837,15.308,15.308,0,0,1,4.561,20.435,13.69,13.69,0,0,1-19.4,4.837A15.308,15.308,0,0,1,304.7,399.668Z" transform="translate(0 0)"/><path class="cls-109" d="M305.194,400.373a13.6,13.6,0,0,1,19.264-4.8,15.2,15.2,0,0,1,4.53,20.3,13.6,13.6,0,0,1-19.264,4.8A15.2,15.2,0,0,1,305.194,400.373Z" transform="translate(0 0)"/><path class="cls-110" d="M305.69,401.079a13.5,13.5,0,0,1,19.133-4.771,15.1,15.1,0,0,1,4.5,20.157,13.5,13.5,0,0,1-19.133,4.771A15.1,15.1,0,0,1,305.69,401.079Z" transform="translate(0 0)"/><path class="cls-111" d="M306.185,401.785a13.41,13.41,0,0,1,19-4.738,15,15,0,0,1,4.468,20.018,13.41,13.41,0,0,1-19,4.738A15,15,0,0,1,306.185,401.785Z" transform="translate(0 0)"/><path class="cls-112" d="M306.681,402.491a13.317,13.317,0,0,1,18.869-4.706,14.892,14.892,0,0,1,4.437,19.879,13.317,13.317,0,0,1-18.869,4.706A14.892,14.892,0,0,1,306.681,402.491Z" transform="translate(0 0)"/><path class="cls-113" d="M307.176,403.2a13.224,13.224,0,0,1,18.737-4.673,14.788,14.788,0,0,1,4.406,19.74,13.224,13.224,0,0,1-18.737,4.673A14.788,14.788,0,0,1,307.176,403.2Z" transform="translate(0 0)"/><path class="cls-114" d="M307.671,403.9a13.131,13.131,0,0,1,18.605-4.64,14.684,14.684,0,0,1,4.375,19.6,13.131,13.131,0,0,1-18.605,4.64A14.684,14.684,0,0,1,307.671,403.9Z" transform="translate(0 0)"/><path class="cls-115" d="M308.167,404.609A13.038,13.038,0,0,1,326.64,400a14.58,14.58,0,0,1,4.344,19.462,13.038,13.038,0,0,1-18.473,4.607A14.58,14.58,0,0,1,308.167,404.609Z" transform="translate(0 0)"/><path class="cls-116" d="M308.662,405.314A12.945,12.945,0,0,1,327,400.74a14.476,14.476,0,0,1,4.313,19.324,12.945,12.945,0,0,1-18.342,4.574A14.476,14.476,0,0,1,308.662,405.314Z" transform="translate(0 0)"/><path class="cls-117" d="M309.157,406.02a12.852,12.852,0,0,1,18.21-4.541,14.372,14.372,0,0,1,4.282,19.185,12.852,12.852,0,0,1-18.21,4.541A14.372,14.372,0,0,1,309.157,406.02Z" transform="translate(0 0)"/><path class="cls-118" d="M309.653,406.726a12.759,12.759,0,0,1,18.078-4.508,14.268,14.268,0,0,1,4.251,19.046,12.759,12.759,0,0,1-18.078,4.508A14.268,14.268,0,0,1,309.653,406.726Z" transform="translate(0 0)"/><path class="cls-119" d="M310.148,407.432a12.666,12.666,0,0,1,17.946-4.475,14.164,14.164,0,0,1,4.22,18.907,12.666,12.666,0,0,1-17.946,4.475A14.164,14.164,0,0,1,310.148,407.432Z" transform="translate(0 0)"/><path class="cls-120" d="M310.644,408.138a12.573,12.573,0,0,1,17.814-4.443,14.06,14.06,0,0,1,4.189,18.768,12.573,12.573,0,0,1-17.814,4.443A14.06,14.06,0,0,1,310.644,408.138Z" transform="translate(0 0)"/><path class="cls-121" d="M311.139,408.844a12.48,12.48,0,0,1,17.682-4.41,13.956,13.956,0,0,1,4.158,18.629,12.48,12.48,0,0,1-17.682,4.41A13.956,13.956,0,0,1,311.139,408.844Z" transform="translate(0 0)"/><path class="cls-122" d="M311.634,409.55a12.387,12.387,0,0,1,17.55-4.377,13.852,13.852,0,0,1,4.127,18.49,12.387,12.387,0,0,1-17.55,4.377A13.852,13.852,0,0,1,311.634,409.55Z" transform="translate(0 0)"/><path class="cls-123" d="M312.13,410.256a12.294,12.294,0,0,1,17.419-4.344,13.747,13.747,0,0,1,4.1,18.351,12.294,12.294,0,0,1-17.419,4.344A13.747,13.747,0,0,1,312.13,410.256Z" transform="translate(0 0)"/><path class="cls-124" d="M312.625,410.961a12.2,12.2,0,0,1,17.287-4.311,13.643,13.643,0,0,1,4.065,18.212,12.2,12.2,0,0,1-17.287,4.311A13.643,13.643,0,0,1,312.625,410.961Z" transform="translate(0 0)"/><path class="cls-125" d="M313.12,411.667a12.108,12.108,0,0,1,17.155-4.278,13.539,13.539,0,0,1,4.034,18.073,12.108,12.108,0,0,1-17.155,4.278A13.539,13.539,0,0,1,313.12,411.667Z" transform="translate(0 0)"/><path class="cls-126" d="M313.616,412.373a12.014,12.014,0,0,1,17.023-4.245,13.435,13.435,0,0,1,4,17.934,12.014,12.014,0,0,1-17.023,4.245A13.435,13.435,0,0,1,313.616,412.373Z" transform="translate(0 0)"/><path class="cls-127" d="M314.111,413.079A11.921,11.921,0,0,1,331,408.867a13.331,13.331,0,0,1,3.972,17.8,11.921,11.921,0,0,1-16.891,4.212A13.331,13.331,0,0,1,314.111,413.079Z" transform="translate(0 0)"/><path class="cls-128" d="M314.606,413.785a11.828,11.828,0,0,1,16.759-4.18,13.227,13.227,0,0,1,3.941,17.657,11.828,11.828,0,0,1-16.759,4.18A13.227,13.227,0,0,1,314.606,413.785Z" transform="translate(0 0)"/><path class="cls-129" d="M315.1,414.491a11.735,11.735,0,0,1,16.627-4.147,13.123,13.123,0,0,1,3.91,17.518,11.735,11.735,0,0,1-16.627,4.147A13.123,13.123,0,0,1,315.1,414.491Z" transform="translate(0 0)"/><path class="cls-130" d="M315.6,415.2a11.642,11.642,0,0,1,16.5-4.114,13.019,13.019,0,0,1,3.879,17.379,11.642,11.642,0,0,1-16.5,4.114A13.019,13.019,0,0,1,315.6,415.2Z" transform="translate(0 0)"/><path class="cls-131" d="M316.093,415.9a11.549,11.549,0,0,1,16.364-4.081,12.915,12.915,0,0,1,3.848,17.24,11.549,11.549,0,0,1-16.364,4.081A12.915,12.915,0,0,1,316.093,415.9Z" transform="translate(0 0)"/><path class="cls-132" d="M316.588,416.608a11.456,11.456,0,0,1,16.232-4.048,12.811,12.811,0,0,1,3.817,17.1,11.456,11.456,0,0,1-16.232,4.048A12.811,12.811,0,0,1,316.588,416.608Z" transform="translate(0 0)"/><path class="cls-133" d="M317.083,417.314a11.363,11.363,0,0,1,16.1-4.015,12.707,12.707,0,0,1,3.786,16.962,11.363,11.363,0,0,1-16.1,4.015A12.707,12.707,0,0,1,317.083,417.314Z" transform="translate(0 0)"/><path class="cls-134" d="M317.579,418.02a11.27,11.27,0,0,1,15.968-3.982,12.6,12.6,0,0,1,3.755,16.823,11.27,11.27,0,0,1-15.968,3.982A12.6,12.6,0,0,1,317.579,418.02Z" transform="translate(0 0)"/><path class="cls-135" d="M318.074,418.726a11.177,11.177,0,0,1,15.836-3.949,12.5,12.5,0,0,1,3.724,16.684A11.177,11.177,0,0,1,321.8,435.41,12.5,12.5,0,0,1,318.074,418.726Z" transform="translate(0 0)"/><path class="cls-136" d="M318.569,419.432a11.084,11.084,0,0,1,15.7-3.916,12.4,12.4,0,0,1,3.693,16.545,11.084,11.084,0,0,1-15.7,3.916A12.4,12.4,0,0,1,318.569,419.432Z" transform="translate(0 0)"/><path class="cls-137" d="M319.065,420.138a10.991,10.991,0,0,1,15.573-3.884,12.291,12.291,0,0,1,3.662,16.406,10.991,10.991,0,0,1-15.573,3.884A12.291,12.291,0,0,1,319.065,420.138Z" transform="translate(0 0)"/><path class="cls-138" d="M319.56,420.844A10.9,10.9,0,0,1,335,416.993a12.187,12.187,0,0,1,3.631,16.268,10.9,10.9,0,0,1-15.441,3.851A12.187,12.187,0,0,1,319.56,420.844Z" transform="translate(0 0)"/><path class="cls-139" d="M320.056,421.549a10.8,10.8,0,0,1,15.309-3.818,12.082,12.082,0,0,1,3.6,16.129,10.8,10.8,0,0,1-15.309,3.818A12.082,12.082,0,0,1,320.056,421.549Z" transform="translate(0 0)"/><path class="cls-3" d="M320.551,422.255a10.712,10.712,0,0,1,15.177-3.785,11.978,11.978,0,0,1,3.569,15.99,10.712,10.712,0,0,1-15.177,3.785A11.978,11.978,0,0,1,320.551,422.255Z" transform="translate(0 0)"/><path class="cls-4" d="M247.2,345.75c-8.115-14.895-3.821-32.6,9.59-39.545s30.861-.5,38.975,14.394,3.821,32.6-9.59,39.545S255.313,360.645,247.2,345.75Z" transform="translate(0 0)"/><path d="M274.621,368.919c-12.779,0-25.72-7.5-32.692-20.3a37.892,37.892,0,0,1-3.306-28.99,31.082,31.082,0,0,1,15.4-18.754c16.272-8.426,37.355-.865,47,16.851a37.889,37.889,0,0,1,3.306,28.989,30.77,30.77,0,0,1-29.717,22.2Zm-6.187-59.513A18.864,18.864,0,0,0,250.1,323.144a25.826,25.826,0,0,0,2.368,19.735h0c6.55,12.025,20.431,17.383,30.946,11.935a19.178,19.178,0,0,0,9.445-11.609,25.825,25.825,0,0,0-2.368-19.735C285.681,314.638,276.916,309.406,268.434,309.406Z" transform="translate(0 0)"/></svg>