<svg xmlns="http://www.w3.org/2000/svg" xmlns:xlink="http://www.w3.org/1999/xlink" viewBox="0 0 512 512"><defs><style>.cls-1,.cls-3{fill:none;}.cls-2{isolation:isolate;}.cls-3{stroke:#fff;stroke-width:10px;}.cls-18,.cls-19,.cls-20,.cls-21,.cls-22,.cls-23,.cls-24,.cls-25,.cls-26,.cls-27,.cls-28,.cls-29,.cls-3,.cls-30,.cls-31,.cls-32,.cls-33,.cls-34,.cls-35,.cls-36,.cls-37,.cls-38,.cls-6{stroke-miterlimit:10;}.cls-4{fill:#22b573;}.cls-27,.cls-5{fill:#fff;}.cls-18,.cls-19,.cls-20,.cls-21,.cls-22,.cls-23,.cls-24,.cls-25,.cls-26,.cls-27,.cls-28,.cls-29,.cls-30,.cls-31,.cls-32,.cls-33,.cls-34,.cls-35,.cls-36,.cls-37,.cls-38,.cls-6{stroke:#000;}.cls-6{stroke-width:9px;fill:url(#未命名漸層_30);}.cls-7{fill:#b3b3b3;opacity:0.5;mix-blend-mode:multiply;}.cls-8{fill:#46585c;}.cls-9{fill:#323f42;}.cls-10{clip-path:url(#clip-path);}.cls-11{fill:#252e30;}.cls-12{fill:#333f42;}.cls-13{fill:#b8b8b8;}.cls-14{fill:#242d30;}.cls-15{fill:#1b2123;}.cls-16{clip-path:url(#clip-path-2);}.cls-17{fill:url(#未命名漸層_74);}.cls-18{fill:#363533;}.cls-18,.cls-19,.cls-20,.cls-21,.cls-22,.cls-23,.cls-24,.cls-25,.cls-26,.cls-27,.cls-28,.cls-29,.cls-30,.cls-31,.cls-32,.cls-33,.cls-34,.cls-35,.cls-36,.cls-37,.cls-38{stroke-width:2px;}.cls-19{fill:#f9fafb;}.cls-20{fill:#7d7b78;}.cls-21{fill:#29332e;}.cls-22{fill:#d9d1ec;}.cls-23{fill:#ffcda7;}.cls-24{fill:#dcd7c8;}.cls-25{fill:#d3673d;}.cls-26{fill:#312e2d;}.cls-28{fill:#f9cba1;}.cls-29{fill:#dd574c;}.cls-30{fill:#ecd646;}.cls-31{fill:#a1487b;}.cls-32{fill:#9bb764;}.cls-33{fill:#3f3e3c;}.cls-34{fill:#0d0303;}.cls-35{fill:#b59355;}.cls-36{fill:#ed1c24;mix-blend-mode:soft-light;}.cls-37{fill:#e6e6e6;}.cls-38{fill:#c2bcae;}</style><linearGradient id="未命名漸層_30" x1="20.074" y1="255" x2="491.909" y2="255" gradientUnits="userSpaceOnUse"><stop offset="0" stop-color="#a67c52"/><stop offset="1" stop-color="#603813"/></linearGradient><clipPath id="clip-path" transform="translate(0 0)"><polyline class="cls-1" points="214.24 394.114 179.122 346.666 198.628 332.126 233.746 379.574 214.24 394.114"/></clipPath><clipPath id="clip-path-2" transform="translate(0 0)"><polyline class="cls-1" points="348.163 222.311 383.28 269.76 363.774 284.299 328.657 236.851 348.163 222.311"/></clipPath><linearGradient id="未命名漸層_74" x1="1003.382" y1="-814.898" x2="1003.382" y2="-644.772" gradientTransform="translate(-752.408 997.494)" gradientUnits="userSpaceOnUse"><stop offset="0" stop-color="#f15a24"/><stop offset="0.965" stop-color="#d4145a"/></linearGradient></defs><title>auticar</title><g class="cls-2"><g id="圖層_1" data-name="圖層 1"><path class="cls-3" d="M149.833,180.509" transform="translate(0 0)"/><path class="cls-4" d="M479.334,6.009H32.666A26.535,26.535,0,0,0,6.048,32.461V479.539a26.535,26.535,0,0,0,26.618,26.452H479.334a26.535,26.535,0,0,0,26.618-26.452V32.461A26.535,26.535,0,0,0,479.334,6.009Z" transform="translate(0 0)"/><path class="cls-5" d="M479.334,512H32.666A32.6,32.6,0,0,1,0,479.54V32.461A32.6,32.6,0,0,1,32.666,0H479.334A32.6,32.6,0,0,1,512,32.461V479.54A32.6,32.6,0,0,1,479.334,512ZM32.666,12.019A20.531,20.531,0,0,0,12.094,32.461V479.54a20.53,20.53,0,0,0,20.572,20.441H479.334a20.53,20.53,0,0,0,20.572-20.441V32.461a20.531,20.531,0,0,0-20.572-20.443Z" transform="translate(0 0)"/><path class="cls-6" d="M39.973,491H472.027a19.852,19.852,0,0,0,19.883-19.464V38.468A19.853,19.853,0,0,0,472.027,19H39.973a19.859,19.859,0,0,0-19.9,19.774V55.739H439.348a13.871,13.871,0,0,1,13.871,13.871V444.256a13.871,13.871,0,0,1-13.871,13.871H66.635a13.871,13.871,0,0,1-13.871-13.871V340.889a32.69,32.69,0,0,0-32.69-32.69h0V471.226A19.858,19.858,0,0,0,39.973,491Z" transform="translate(0 0)"/><circle class="cls-7" cx="254.39" cy="267.498" r="187.5"/><path class="cls-5" d="M107.022,143.145a6.634,6.634,0,0,1-9.584-8.012,71.635,71.635,0,0,1,63.629-46.757,6.634,6.634,0,0,1,.648,13.253,58.363,58.363,0,0,0-51.823,38.082A6.607,6.607,0,0,1,107.022,143.145Z" transform="translate(0 0)"/><path d="M104.479,148.177A10.785,10.785,0,0,1,93.546,133.7a75.779,75.779,0,0,1,67.318-49.467,10.781,10.781,0,1,1,1.055,21.536,54.218,54.218,0,0,0-48.136,35.372,10.794,10.794,0,0,1-4.664,5.58h0A10.769,10.769,0,0,1,104.479,148.177ZM159.485,92.63a67.5,67.5,0,0,0-58.156,43.935,2.488,2.488,0,0,0,4.67,1.718,62.51,62.51,0,0,1,55.513-40.794l.066,0a2.488,2.488,0,0,0-.309-4.966Q160.376,92.563,159.485,92.63Z" transform="translate(0 0)"/><path class="cls-5" d="M125.022,167.92a6.634,6.634,0,0,1-9.674-7.748,71.628,71.628,0,0,1,61.793-49.432,6.634,6.634,0,0,1,1.171,13.217,58.371,58.371,0,0,0-27.782,10,57.766,57.766,0,0,0-22.547,30.266A6.612,6.612,0,0,1,125.022,167.92Z" transform="translate(0 0)"/><path d="M122.476,172.946A10.78,10.78,0,0,1,111.4,158.907a75.022,75.022,0,0,1,29.282-39.312,75.783,75.783,0,0,1,36.094-12.984l.142-.012a10.781,10.781,0,0,1,1.76,21.489,54.207,54.207,0,0,0-25.8,9.288,53.662,53.662,0,0,0-20.943,28.111,10.764,10.764,0,0,1-4.814,6.01h0A10.793,10.793,0,0,1,122.476,172.946Zm55.063-58.078-.032,0A67.479,67.479,0,0,0,119.3,161.438a2.488,2.488,0,0,0,3.629,2.905h0a2.449,2.449,0,0,0,1.109-1.387,61.882,61.882,0,0,1,24.151-32.419,62.522,62.522,0,0,1,29.762-10.71,2.488,2.488,0,0,0-.407-4.958Z" transform="translate(0 0)"/><path class="cls-5" d="M143.025,192.627a6.634,6.634,0,0,1-9.674-7.748,70.921,70.921,0,0,1,27.679-37.158,71.635,71.635,0,0,1,34.115-12.273,6.634,6.634,0,0,1,1.171,13.217,58.366,58.366,0,0,0-27.782,10,57.767,57.767,0,0,0-22.547,30.266A6.612,6.612,0,0,1,143.025,192.627Z" transform="translate(0 0)"/><path d="M140.482,197.653A10.778,10.778,0,0,1,129.4,183.614a75.775,75.775,0,0,1,65.376-52.3l.14-.011a10.781,10.781,0,0,1,1.763,21.489,54.213,54.213,0,0,0-46.746,37.4,10.771,10.771,0,0,1-4.814,6.011h0A10.787,10.787,0,0,1,140.482,197.653Zm55.062-58.078-.032,0A67.48,67.48,0,0,0,137.3,186.145a2.491,2.491,0,0,0,1.61,3.129,2.458,2.458,0,0,0,2.018-.223h0a2.448,2.448,0,0,0,1.111-1.387,61.871,61.871,0,0,1,24.151-32.419,62.513,62.513,0,0,1,29.761-10.711,2.488,2.488,0,0,0-.407-4.958Z" transform="translate(0 0)"/><path class="cls-5" d="M349.8,98a6.634,6.634,0,0,1,8.445-9.2,71.635,71.635,0,0,1,43.771,65.719,6.634,6.634,0,1,1-13.269.036,58.363,58.363,0,0,0-35.651-53.525A6.607,6.607,0,0,1,349.8,98Z" transform="translate(0 0)"/><path d="M344.886,95.23A10.785,10.785,0,0,1,359.85,84.977a75.779,75.779,0,0,1,46.309,69.528,10.781,10.781,0,1,1-21.561.06,54.218,54.218,0,0,0-33.113-49.717,10.794,10.794,0,0,1-5.359-4.917h0A10.769,10.769,0,0,1,344.886,95.23Zm52.95,57.51A67.5,67.5,0,0,0,356.631,92.62a2.488,2.488,0,0,0-1.931,4.586,62.51,62.51,0,0,1,38.19,57.336c0,.023,0,.045,0,.066a2.488,2.488,0,0,0,4.975-.08Q397.863,153.634,397.837,152.741Z" transform="translate(0 0)"/><path class="cls-5" d="M324.216,114.84a6.634,6.634,0,0,1,8.186-9.306,71.628,71.628,0,0,1,46.528,64.008,6.634,6.634,0,1,1-13.257.56,58.371,58.371,0,0,0-8.707-28.214,57.766,57.766,0,0,0-29.193-23.919A6.612,6.612,0,0,1,324.216,114.84Z" transform="translate(0 0)"/><path d="M319.313,112.066a10.78,10.78,0,0,1,14.535-10.418,75.022,75.022,0,0,1,37.919,31.064,75.783,75.783,0,0,1,11.305,36.655c0,.048,0,.095,0,.142a10.781,10.781,0,0,1-21.548.767,54.207,54.207,0,0,0-8.088-26.2,53.662,53.662,0,0,0-27.115-22.217,10.764,10.764,0,0,1-5.781-5.086h0A10.793,10.793,0,0,1,319.313,112.066Zm55.475,57.684,0-.032a67.479,67.479,0,0,0-43.831-60.3,2.488,2.488,0,0,0-3.069,3.491h0a2.449,2.449,0,0,0,1.334,1.172,61.882,61.882,0,0,1,31.27,25.621,62.522,62.522,0,0,1,9.326,30.224,2.488,2.488,0,0,0,4.972-.178Z" transform="translate(0 0)"/><path class="cls-5" d="M298.705,131.685a6.634,6.634,0,0,1,8.186-9.306,70.921,70.921,0,0,1,35.842,29.364,71.635,71.635,0,0,1,10.686,34.644,6.634,6.634,0,0,1-13.257.56,58.366,58.366,0,0,0-8.707-28.214,57.767,57.767,0,0,0-29.193-23.919A6.612,6.612,0,0,1,298.705,131.685Z" transform="translate(0 0)"/><path d="M293.8,128.912a10.778,10.778,0,0,1,14.535-10.419,75.775,75.775,0,0,1,49.225,67.719c0,.047,0,.094,0,.141a10.781,10.781,0,0,1-21.548.77,54.213,54.213,0,0,0-35.2-48.422,10.771,10.771,0,0,1-5.782-5.086h0A10.787,10.787,0,0,1,293.8,128.912Zm55.476,57.683,0-.032a67.48,67.48,0,0,0-43.831-60.3,2.491,2.491,0,0,0-3.2,1.464,2.458,2.458,0,0,0,.13,2.026h0a2.448,2.448,0,0,0,1.334,1.174,61.871,61.871,0,0,1,31.27,25.621,62.513,62.513,0,0,1,9.326,30.223,2.488,2.488,0,0,0,4.972-.178Z" transform="translate(0 0)"/><path class="cls-5" d="M108.984,353.494a6.634,6.634,0,0,1-8.445,9.2A71.635,71.635,0,0,1,56.768,296.98a6.634,6.634,0,0,1,13.269-.036,58.363,58.363,0,0,0,35.651,53.525A6.607,6.607,0,0,1,108.984,353.494Z" transform="translate(0 0)"/><path d="M113.893,356.267A10.785,10.785,0,0,1,98.93,366.52a75.779,75.779,0,0,1-46.309-69.528,10.781,10.781,0,1,1,21.561-.06A54.218,54.218,0,0,0,107.3,346.648a10.794,10.794,0,0,1,5.359,4.917h0A10.769,10.769,0,0,1,113.893,356.267Zm-52.95-57.51a67.5,67.5,0,0,0,41.205,60.121,2.488,2.488,0,0,0,1.931-4.586,62.51,62.51,0,0,1-38.19-57.336c0-.023,0-.045,0-.066a2.488,2.488,0,0,0-4.975.08Q60.917,297.864,60.943,298.757Z" transform="translate(0 0)"/><path class="cls-5" d="M134.564,336.657a6.634,6.634,0,0,1-8.186,9.306,71.628,71.628,0,0,1-46.528-64.008,6.634,6.634,0,0,1,13.257-.56,58.371,58.371,0,0,0,8.707,28.214,57.766,57.766,0,0,0,29.193,23.919A6.612,6.612,0,0,1,134.564,336.657Z" transform="translate(0 0)"/><path d="M139.466,339.431a10.78,10.78,0,0,1-14.535,10.418,75.022,75.022,0,0,1-37.919-31.064A75.783,75.783,0,0,1,75.707,282.13c0-.048,0-.095,0-.142a10.781,10.781,0,0,1,21.548-.767,54.207,54.207,0,0,0,8.088,26.2,53.662,53.662,0,0,0,27.115,22.217,10.764,10.764,0,0,1,5.781,5.086h0A10.793,10.793,0,0,1,139.466,339.431ZM83.991,281.747l0,.032a67.479,67.479,0,0,0,43.831,60.3,2.488,2.488,0,0,0,3.069-3.491h0a2.449,2.449,0,0,0-1.334-1.172,61.882,61.882,0,0,1-31.27-25.621,62.522,62.522,0,0,1-9.326-30.224,2.488,2.488,0,0,0-4.972.178Z" transform="translate(0 0)"/><path class="cls-5" d="M160.074,319.812a6.634,6.634,0,0,1-8.186,9.306,70.921,70.921,0,0,1-35.842-29.364A71.635,71.635,0,0,1,105.36,265.11a6.634,6.634,0,1,1,13.257-.56,58.366,58.366,0,0,0,8.707,28.214,57.767,57.767,0,0,0,29.193,23.919A6.612,6.612,0,0,1,160.074,319.812Z" transform="translate(0 0)"/><path d="M164.978,322.585A10.778,10.778,0,0,1,150.442,333a75.775,75.775,0,0,1-49.225-67.719c0-.047,0-.094,0-.141a10.781,10.781,0,0,1,21.548-.77,54.213,54.213,0,0,0,35.2,48.422,10.771,10.771,0,0,1,5.782,5.086h0A10.787,10.787,0,0,1,164.978,322.585ZM109.5,264.9l0,.032a67.48,67.48,0,0,0,43.831,60.3,2.491,2.491,0,0,0,3.2-1.464,2.458,2.458,0,0,0-.13-2.026h0a2.448,2.448,0,0,0-1.334-1.174,61.871,61.871,0,0,1-31.27-25.621,62.513,62.513,0,0,1-9.326-30.223,2.488,2.488,0,0,0-4.972.178Z" transform="translate(0 0)"/><path class="cls-7" d="M416.364,260.082,383.82,215.423a13.428,13.428,0,0,0-8.654-5.359c-.344-.057-.8-.111-1.144-.138l-3.469-.278a11.9,11.9,0,0,0-7.954,2.244l-.1.074-3.011,2.243a11.98,11.98,0,0,0-4.767,2.628l-50.865-69.8a23.816,23.816,0,0,0-33.235-5.216L145.654,232.884a23.816,23.816,0,0,0-5.216,33.236L191.944,336.8a12.066,12.066,0,0,0-6.974,5.768,11.894,11.894,0,0,0-4.3,6.955l-.218,1.06-.062.3-.327,1.579a13.374,13.374,0,0,0,2.325,10.633l32.544,44.659a13.428,13.428,0,0,0,8.654,5.359c.349.058.806.113,1.16.139l3.453.277a11.9,11.9,0,0,0,7.954-2.244l.1-.074,3.011-2.243a12.052,12.052,0,0,0,6.292-4.274q.263-.2.514-.411c.172-.112.342-.23.509-.352s.306-.232.453-.352a11.963,11.963,0,0,0,3.115-1.617,12.181,12.181,0,0,0,1.349-1.141,23.75,23.75,0,0,0,13.236-4.522L389.7,305.237a23.661,23.661,0,0,0,8.666-12.052,12.252,12.252,0,0,0,2-2.438,12.111,12.111,0,0,0,1.906-1.138q.319-.237.619-.489.258-.169.509-.352.321-.238.621-.491.256-.168.506-.35a12.463,12.463,0,0,0,1.531-1.334,12.346,12.346,0,0,0,4.183-1.946,12.217,12.217,0,0,0,3.541-4.039,11.894,11.894,0,0,0,4.3-6.956l.217-1.06.062-.3.327-1.581A13.376,13.376,0,0,0,416.364,260.082Z" transform="translate(0 0)"/><polyline points="191.318 338.14 191.319 338.141 191.318 338.14"/><polyline points="372.624 277.888 372.625 277.889 372.624 277.888"/><path d="M261.007,156.278a11.256,11.256,0,0,1,15.718,2.511l55.4,76.023,16.018-11.942,0,0v0l3.326.275c.033,0,.065.007.1.012a1.494,1.494,0,0,1,.929.6l30.873,42.367,0,.006a1.479,1.479,0,0,1,.28,1.159l-.3,1.492-.062.3-.2,1v0L365.271,283.37a11.182,11.182,0,0,1-4.561,9.731L242.782,379.037a11.167,11.167,0,0,1-10.114,1.548L215.8,393.159l0,0v0l-3.326-.275c-.033,0-.065-.007-.1-.012a1.493,1.493,0,0,1-.929-.6L180.57,349.906l-.007-.01a1.476,1.476,0,0,1-.277-1.155l.3-1.492.062-.3.2-1v0l14.911-11.116.22-.947-55.333-75.932a11.255,11.255,0,0,1,2.425-15.732l117.929-85.936m-6.647-9.122L136.431,233.093a22.537,22.537,0,0,0-4.849,31.464l48.874,67.069a11.328,11.328,0,0,0-6.58,5.445,11.193,11.193,0,0,0-4.044,6.577l-.2,1-.058.284-.3,1.5a12.724,12.724,0,0,0,2.225,10.077l30.88,42.377a12.778,12.778,0,0,0,8.2,5.1c.33.056.763.109,1.1.134l3.266.271a11.191,11.191,0,0,0,7.515-2.105l.094-.07,2.842-2.117a11.315,11.315,0,0,0,5.938-4.033q.248-.188.485-.388c.162-.106.323-.217.481-.332s.288-.219.428-.332a11.237,11.237,0,0,0,2.941-1.524,11.454,11.454,0,0,0,1.273-1.078,22.328,22.328,0,0,0,12.5-4.25l117.929-85.936a22.246,22.246,0,0,0,8.164-11.392,11.505,11.505,0,0,0,1.885-2.3,11.368,11.368,0,0,0,1.8-1.073q.3-.223.584-.462.244-.159.48-.332.3-.224.586-.464.242-.158.478-.33a11.686,11.686,0,0,0,1.444-1.259,11.6,11.6,0,0,0,3.951-1.833,11.479,11.479,0,0,0,3.338-3.817,11.191,11.191,0,0,0,4.044-6.577l.2-1,.058-.282.305-1.5a12.724,12.724,0,0,0-2.225-10.077l-30.88-42.377a12.778,12.778,0,0,0-8.2-5.1c-.326-.055-.753-.108-1.082-.133l-3.28-.272a11.192,11.192,0,0,0-7.515,2.105l-.094.07-2.842,2.117a11.245,11.245,0,0,0-4.5,2.477L285.8,152.179a22.537,22.537,0,0,0-31.437-5.022Z" transform="translate(0 0)"/><path class="cls-8" d="M179.125,346.664l35.118,47.449-3.357-.269a1.472,1.472,0,0,1-1.036-.612l-31.025-42.575a1.481,1.481,0,0,1-.284-1.172l.584-2.821" transform="translate(0 0)"/><polyline class="cls-9" points="214.24 394.114 179.122 346.666 198.628 332.126 233.746 379.574 214.24 394.114"/><path class="cls-8" d="M233.746,379.574l-35.118-47.448,3.057.243a1.471,1.471,0,0,1,1.036.612L234.113,375.4a1.482,1.482,0,0,1,.284,1.172l-.651,3.007" transform="translate(0 0)"/><g class="cls-10"><path class="cls-8" d="M188.619,339.583a.318.318,0,0,1,.512-.376l35.117,47.448v0a.318.318,0,0,1-.512.376L188.62,339.585v0" transform="translate(0 0)"/><path class="cls-8" d="M187.542,340.385a.318.318,0,0,1,.513-.377l35.117,47.449v0a.318.318,0,0,1-.512.376l-35.117-47.448v0" transform="translate(0 0)"/><path class="cls-8" d="M189.694,338.781a.318.318,0,0,1,.512-.376l35.118,47.449v0a.318.318,0,0,1-.512.376L189.7,338.783v0" transform="translate(0 0)"/><path class="cls-8" d="M196.4,347.839a.318.318,0,0,1-.052-.26l3.38-14.346a.318.318,0,1,1,.619.146l-3.38,14.346a.318.318,0,0,1-.567.114" transform="translate(0 0)"/><path class="cls-8" d="M199.765,352.028a.318.318,0,0,1-.052-.26l3.3-14.02a.318.318,0,0,1,.619.146l-3.3,14.02a.318.318,0,0,1-.567.114Z" transform="translate(0 0)"/><path class="cls-8" d="M202.847,356.329a.317.317,0,0,1-.053-.26L206.111,342a.318.318,0,0,1,.619.146l-3.316,14.073a.318.318,0,0,1-.567.114Z" transform="translate(0 0)"/><path class="cls-8" d="M206.2,360.933a.318.318,0,0,1-.053-.26l3.316-14.073a.318.318,0,0,1,.619.146l-3.316,14.073a.318.318,0,0,1-.567.114Z" transform="translate(0 0)"/><path class="cls-8" d="M209.558,365.538a.317.317,0,0,1-.053-.26l3.316-14.073a.318.318,0,0,1,.619.146l-3.316,14.073a.318.318,0,0,1-.566.114Z" transform="translate(0 0)"/><path class="cls-8" d="M212.914,370.143a.317.317,0,0,1-.053-.26l3.316-14.073a.318.318,0,0,1,.619.146l-3.316,14.073a.318.318,0,0,1-.567.114Z" transform="translate(0 0)"/><path class="cls-8" d="M216.291,374.655a.316.316,0,0,1-.052-.26l3.294-13.981a.318.318,0,0,1,.619.146l-3.294,13.981a.318.318,0,0,1-.567.114Z" transform="translate(0 0)"/><path class="cls-8" d="M219.668,379.17a.317.317,0,0,1-.053-.26l3.273-13.891a.318.318,0,0,1,.619.146l-3.273,13.891a.318.318,0,0,1-.567.114Z" transform="translate(0 0)"/><path class="cls-8" d="M223.039,383.706a.318.318,0,0,1-.053-.26l3.257-13.822a.318.318,0,1,1,.619.146l-3.256,13.822a.318.318,0,0,1-.567.114" transform="translate(0 0)"/><path class="cls-8" d="M227.139,385.154a.316.316,0,0,1-.052-.26l2.513-10.665a.318.318,0,0,1,.619.146l-2.513,10.665a.318.318,0,0,1-.566.114" transform="translate(0 0)"/><path class="cls-8" d="M192.648,342.458a.316.316,0,0,1-.052-.26l1.888-8.013a.318.318,0,0,1,.619.146l-1.888,8.013a.318.318,0,0,1-.567.114" transform="translate(0 0)"/><path class="cls-8" d="M179.582,348.21a.318.318,0,0,1,.282-.5l14.362,1.125a.318.318,0,0,1-.05.634l-14.362-1.125a.319.319,0,0,1-.232-.13" transform="translate(0 0)"/><path class="cls-8" d="M182.873,352.725a.318.318,0,0,1,.283-.5l14.669,1.2a.318.318,0,1,1-.051.634l-14.669-1.2a.317.317,0,0,1-.231-.13" transform="translate(0 0)"/><path class="cls-8" d="M185.968,356.972a.318.318,0,0,1,.283-.5l14.647,1.191a.318.318,0,1,1-.051.633L186.2,357.1a.317.317,0,0,1-.231-.13" transform="translate(0 0)"/><path class="cls-8" d="M189.324,361.577a.314.314,0,0,1-.06-.213.318.318,0,0,1,.343-.291l14.631,1.189a.318.318,0,1,1-.051.634l-14.631-1.189a.317.317,0,0,1-.231-.129" transform="translate(0 0)"/><path class="cls-8" d="M192.679,366.182a.317.317,0,0,1,.283-.5l14.792,1.214a.318.318,0,0,1-.053.634l-14.791-1.214a.315.315,0,0,1-.231-.13" transform="translate(0 0)"/><path class="cls-8" d="M196.035,370.786a.317.317,0,0,1,.283-.5l14.79,1.214a.318.318,0,1,1-.052.633l-14.79-1.214a.316.316,0,0,1-.231-.13" transform="translate(0 0)"/><path class="cls-8" d="M199.39,375.391a.318.318,0,0,1,.283-.5l14.911,1.24a.318.318,0,0,1-.053.634l-14.911-1.24a.316.316,0,0,1-.231-.13" transform="translate(0 0)"/><path class="cls-8" d="M202.746,380a.317.317,0,0,1,.282-.5l14.94,1.2a.318.318,0,1,1-.05.634l-14.94-1.2a.317.317,0,0,1-.231-.13" transform="translate(0 0)"/><path class="cls-8" d="M206.1,384.6a.317.317,0,0,1,.282-.5l15.059,1.206a.318.318,0,1,1-.05.634l-15.059-1.206a.317.317,0,0,1-.231-.13" transform="translate(0 0)"/><path class="cls-8" d="M209.456,389.2a.317.317,0,0,1,.282-.5l10.923.875a.318.318,0,0,1-.051.634l-10.922-.875a.318.318,0,0,1-.231-.13" transform="translate(0 0)"/><path class="cls-8" d="M182.095,343.512a.317.317,0,0,1,.282-.5l8.206.657a.318.318,0,1,1-.05.634l-8.206-.657a.318.318,0,0,1-.231-.13" transform="translate(0 0)"/></g><path class="cls-11" d="M201.685,332.369l-.958-.076,33.348,45.763.322-1.488a1.482,1.482,0,0,0-.284-1.172l-31.392-42.414a1.471,1.471,0,0,0-1.036-.612" transform="translate(0 0)"/><path class="cls-11" d="M212.358,393.962l-33.506-45.98-.311,1.5a1.481,1.481,0,0,0,.284,1.172l31.025,42.575a1.472,1.472,0,0,0,1.036.612l1.473.118" transform="translate(0 0)"/><path class="cls-12" d="M200.776,330.057a1.233,1.233,0,0,1,.03-.247l.032-.142-.032.142a1.229,1.229,0,0,0-.03.247" transform="translate(0 0)"/><path class="cls-13" d="M179.124,346.667v0h0m35.116,47.447h0m0,0,12.9-9.617h0l-12.9,9.617h0" transform="translate(0 0)"/><path class="cls-12" d="M210.885,393.844l1.473.118-33.506-45.98.272-1.314h0l.77,1.041.5.677,2.844,3.843.5.679,2.644,3.572.5.679,2.909,3.931.5.679,2.909,3.931.5.679,2.909,3.93.5.679,2.909,3.93.5.68,2.907,3.928.5.678,2.909,3.931.5.678,2.909,3.931.5.678,3.472,4.691-3.354-.269m3.357.269h0" transform="translate(0 0)"/><path class="cls-14" d="M179.123,346.666l0,0L183.1,343.7l7.337.588,3.333,4.5-13.873-1.087-.77-1.041v0m1.273,1.72,13.781,1.08a.331.331,0,0,0,.083,0l2.89,3.9-13.91-1.137-2.844-3.843m3.347,4.521,13.909,1.137,1.435,1.938q.33.782.691,1.586l-13.391-1.089-2.644-3.572m3.146,4.251,13.19,1.072c.571,1.242,1.2,2.523,1.9,3.848l-12.184-.99-2.909-3.931m3.412,4.609,12.039.978.007.011q1.115,2.058,2.345,3.883l-11.482-.942-2.909-3.931m3.412,4.61,11.44.939q.3.43.6.846,1.2,1.644,2.464,3.1l-11.6-.951-2.909-3.93m3.411,4.609,11.7.961a46.981,46.981,0,0,0,4.127,4.044l-12.921-1.075-2.909-3.93m3.412,4.61,13.254,1.1q.763.631,1.524,1.208l2.02,2.731-13.891-1.113-2.907-3.928m3.409,4.606,13.892,1.113,2.909,3.931-13.892-1.113-2.909-3.931m3.411,4.609,13.892,1.113,1.414,1.911h0l.509-.38-6.15-8.31q.87.6,1.721,1.138l5,6.749h0l.51-.38-4.069-5.5q.764.446,1.5.84l3.134,4.235h0l.51-.38-1.707-2.307.119-.508c1.255.6,2.4,1.077,3.407,1.458l-12.9,9.617h0v0l-3.472-4.691,8.822.706.773-.576-10.1-.809-2.909-3.931m-23.487-41.684,3.675-2.74,2.387,3.225-6.062-.486m4.185-3.12.566-.422,8.64,11.673q.411,1.16.876,2.37l-10.081-13.621h0m1.076-.8.566-.422,6.192,8.367q.331,1.038.688,2.115l-7.445-10.059h0m1.076-.8,2.134-1.59c.342.79.658,1.591.959,2.4l-.6,2.551-2.49-3.365h0m2.977,4.022a.309.309,0,0,0,.032-.082l.477-2.026c.557,1.6,1.071,3.245,1.611,4.972l-2.12-2.864m29.778,40.234.189.094-.029.122-.16-.216" transform="translate(0 0)"/><path class="cls-12" d="M188.621,339.586l.51-.38h0l7.445,10.06q.326.98.684,1.993l-8.64-11.674m30.122,40.7q.728.46,1.436.872l4.07,5.5-.51.379h0l-5-6.749" transform="translate(0 0)"/><path class="cls-12" d="M187.544,340.388l.51-.38h0l10.081,13.621q.444,1.152.95,2.352l-1.435-1.938.122.01a.318.318,0,1,0,.051-.634l-.675-.055-2.89-3.9a.318.318,0,0,0-.033-.63l-.46-.036-3.333-4.5.1.008a.318.318,0,0,0,.342-.292.314.314,0,0,0-.06-.212.319.319,0,0,0-.232-.13l-.651-.052-2.388-3.226m27.77,37.52q.858.653,1.708,1.24l6.15,8.311-.51.379h0l-1.414-1.911.144.011a.318.318,0,0,0,.05-.634l-.7-.056-2.909-3.931.081.006a.318.318,0,0,0,.342-.292.315.315,0,0,0-.06-.212.319.319,0,0,0-.232-.13l-.633-.051-2.02-2.731" transform="translate(0 0)"/><path class="cls-12" d="M189.7,338.784l.51-.38h0l2.49,3.365-.1.428a.318.318,0,0,0,.587.228l2.12,2.864q.287.915.585,1.86l-6.193-8.367M221.679,382c.436.234.865.456,1.282.664l.16.216-.134.569a.318.318,0,0,0,.619.146l.011-.046,1.707,2.308-.51.379h0L221.679,382" transform="translate(0 0)"/><path class="cls-12" d="M223.039,383.706a.318.318,0,0,1-.053-.26l.134-.569.029-.122q.3.146.586.284l-.119.508-.011.046a.318.318,0,0,1-.567.114" transform="translate(0 0)"/><path class="cls-12" d="M192.648,342.458a.316.316,0,0,1-.052-.26l.1-.428.6-2.551q.2.546.394,1.1l-.477,2.026a.309.309,0,0,1-.032.082.318.318,0,0,1-.534.032" transform="translate(0 0)"/><path class="cls-12" d="M179.894,347.708h0l13.873,1.087.46.036a.318.318,0,0,1,.033.63.331.331,0,0,1-.083,0l-13.781-1.08-.5-.677" transform="translate(0 0)"/><path class="cls-12" d="M183.239,352.228h0l13.91,1.137.675.055a.318.318,0,1,1-.051.634l-.122-.01-13.909-1.137-.5-.679" transform="translate(0 0)"/><path class="cls-12" d="M186.386,356.479h0l13.391,1.089c.1.22.2.44.3.663l-13.19-1.072-.5-.679" transform="translate(0 0)"/><path class="cls-12" d="M189.8,361.089h0l12.184.99q.175.331.357.667l-12.039-.978-.5-.679" transform="translate(0 0)"/><path class="cls-12" d="M193.209,365.7h0l11.482.942q.229.342.461.676l-11.44-.939-.5-.679" transform="translate(0 0)"/><path class="cls-12" d="M196.62,370.307h0l11.6.951c.2.233.4.462.608.688l-11.7-.961-.5-.679" transform="translate(0 0)"/><path class="cls-12" d="M200.032,374.917h0l12.921,1.075q.418.362.837.708l-13.254-1.1-.5-.68" transform="translate(0 0)"/><path class="cls-12" d="M203.442,379.525h0l13.891,1.113.633.051a.319.319,0,0,1,.232.13.315.315,0,0,1,.06.212.318.318,0,0,1-.342.292l-.081-.006L203.944,380.2l-.5-.678" transform="translate(0 0)"/><path class="cls-12" d="M206.854,384.134h0l13.892,1.113.7.056a.318.318,0,1,1-.05.634l-.144-.011-13.892-1.113-.5-.678" transform="translate(0 0)"/><polyline class="cls-12" points="210.265 388.743 210.265 388.743 220.361 389.551 219.588 390.128 210.767 389.421 210.265 388.743"/><path class="cls-12" d="M183.1,343.7l.773-.576,6.062.486.651.052a.319.319,0,0,1,.232.13.314.314,0,0,1,.06.212.318.318,0,0,1-.342.292l-.1-.008L183.1,343.7" transform="translate(0 0)"/><path class="cls-15" d="M178.818,350.648a1.48,1.48,0,0,1-.277-1.163h0l.311-1.5,33.506,45.98-1.473-.118c-.033,0-.066-.007-.1-.012a1.5,1.5,0,0,1-.936-.6l-31.025-42.575-.007-.01" transform="translate(0 0)"/><path class="cls-8" d="M383.278,269.761l-35.118-47.449,3.357.269a1.472,1.472,0,0,1,1.036.612l31.025,42.575a1.481,1.481,0,0,1,.284,1.172l-.584,2.821" transform="translate(0 0)"/><polyline class="cls-9" points="348.163 222.311 383.28 269.76 363.774 284.299 328.657 236.851 348.163 222.311"/><path class="cls-8" d="M328.657,236.851,363.774,284.3l-3.057-.243a1.471,1.471,0,0,1-1.036-.612L328.29,241.03a1.482,1.482,0,0,1-.284-1.172l.651-3.007" transform="translate(0 0)"/><g class="cls-16"><path class="cls-8" d="M373.784,276.842a.318.318,0,0,1-.512.376L338.154,229.77v0a.318.318,0,0,1,.512-.376l35.117,47.448v0" transform="translate(0 0)"/><path class="cls-8" d="M374.86,276.04a.318.318,0,0,1-.513.377L339.23,228.968v0a.318.318,0,0,1,.512-.376l35.117,47.448v0" transform="translate(0 0)"/><path class="cls-8" d="M372.708,277.644a.318.318,0,0,1-.512.376l-35.118-47.449v0a.318.318,0,0,1,.512-.376l35.118,47.449v0" transform="translate(0 0)"/><path class="cls-8" d="M366,268.586a.318.318,0,0,1,.052.26l-3.38,14.346a.318.318,0,1,1-.619-.146l3.38-14.346a.318.318,0,0,1,.567-.114" transform="translate(0 0)"/><path class="cls-8" d="M362.638,264.4a.318.318,0,0,1,.052.26l-3.3,14.02a.318.318,0,0,1-.619-.146l3.3-14.02a.318.318,0,0,1,.567-.114Z" transform="translate(0 0)"/><path class="cls-8" d="M359.555,260.1a.317.317,0,0,1,.053.26l-3.316,14.073a.318.318,0,0,1-.619-.146l3.316-14.073a.318.318,0,0,1,.567-.114Z" transform="translate(0 0)"/><path class="cls-8" d="M356.2,255.492a.318.318,0,0,1,.053.26l-3.316,14.073a.318.318,0,1,1-.619-.146l3.316-14.073a.318.318,0,0,1,.567-.114Z" transform="translate(0 0)"/><path class="cls-8" d="M352.844,250.887a.317.317,0,0,1,.053.26l-3.316,14.073a.318.318,0,0,1-.619-.146L352.278,251a.318.318,0,0,1,.566-.114Z" transform="translate(0 0)"/><path class="cls-8" d="M349.489,246.282a.317.317,0,0,1,.053.26l-3.316,14.073a.318.318,0,0,1-.619-.146l3.316-14.073a.318.318,0,0,1,.567-.114Z" transform="translate(0 0)"/><path class="cls-8" d="M346.112,241.77a.316.316,0,0,1,.052.26l-3.294,13.981a.318.318,0,0,1-.619-.146l3.294-13.981a.318.318,0,0,1,.567-.114Z" transform="translate(0 0)"/><path class="cls-8" d="M342.735,237.255a.317.317,0,0,1,.053.26l-3.273,13.891a.318.318,0,0,1-.619-.146l3.273-13.891a.318.318,0,0,1,.567-.114Z" transform="translate(0 0)"/><path class="cls-8" d="M339.363,232.72a.318.318,0,0,1,.053.26L336.159,246.8a.318.318,0,0,1-.619-.146l3.256-13.822a.318.318,0,0,1,.567-.114" transform="translate(0 0)"/><path class="cls-8" d="M335.264,231.271a.316.316,0,0,1,.052.26L332.8,242.2a.318.318,0,0,1-.619-.146l2.513-10.665a.318.318,0,0,1,.566-.114" transform="translate(0 0)"/><path class="cls-8" d="M369.754,273.967a.316.316,0,0,1,.052.26l-1.888,8.013a.318.318,0,0,1-.619-.146l1.888-8.013a.318.318,0,0,1,.567-.114" transform="translate(0 0)"/><path class="cls-8" d="M382.82,268.215a.318.318,0,0,1-.282.5l-14.362-1.125a.318.318,0,0,1,.05-.634l14.362,1.125a.319.319,0,0,1,.232.13" transform="translate(0 0)"/><path class="cls-8" d="M379.53,263.7a.318.318,0,0,1-.283.5l-14.669-1.2a.318.318,0,1,1,.051-.634l14.669,1.2a.317.317,0,0,1,.231.13" transform="translate(0 0)"/><path class="cls-8" d="M376.435,259.453a.318.318,0,0,1-.283.5L361.5,258.766a.318.318,0,1,1,.051-.633l14.647,1.191a.317.317,0,0,1,.231.13" transform="translate(0 0)"/><path class="cls-8" d="M373.079,254.848a.314.314,0,0,1,.06.213.318.318,0,0,1-.343.291l-14.631-1.189a.318.318,0,1,1,.051-.634l14.631,1.189a.317.317,0,0,1,.231.129" transform="translate(0 0)"/><path class="cls-8" d="M369.724,250.244a.317.317,0,0,1-.283.5l-14.792-1.214a.318.318,0,0,1,.053-.634l14.791,1.214a.315.315,0,0,1,.231.13" transform="translate(0 0)"/><path class="cls-8" d="M366.368,245.639a.317.317,0,0,1-.283.5l-14.79-1.214a.318.318,0,1,1,.052-.633l14.79,1.214a.316.316,0,0,1,.231.13" transform="translate(0 0)"/><path class="cls-8" d="M363.013,241.034a.318.318,0,0,1-.283.5l-14.911-1.24a.318.318,0,0,1,.053-.634l14.911,1.24a.316.316,0,0,1,.231.13" transform="translate(0 0)"/><path class="cls-8" d="M359.657,236.43a.317.317,0,0,1-.282.5l-14.94-1.2a.318.318,0,1,1,.05-.634l14.94,1.2a.317.317,0,0,1,.231.13" transform="translate(0 0)"/><path class="cls-8" d="M356.3,231.825a.317.317,0,0,1-.282.5l-15.059-1.206a.318.318,0,1,1,.05-.634L356.07,231.7a.317.317,0,0,1,.231.13" transform="translate(0 0)"/><path class="cls-8" d="M352.946,227.22a.317.317,0,0,1-.282.5l-10.923-.875a.318.318,0,0,1,.051-.634l10.922.875a.318.318,0,0,1,.231.13" transform="translate(0 0)"/><path class="cls-8" d="M380.308,272.913a.317.317,0,0,1-.282.5l-8.206-.657a.318.318,0,1,1,.05-.634l8.206.657a.318.318,0,0,1,.231.13" transform="translate(0 0)"/></g><path class="cls-11" d="M360.718,284.056l.958.076L328.328,238.37l-.322,1.488a1.482,1.482,0,0,0,.284,1.172l31.392,42.414a1.471,1.471,0,0,0,1.036.612" transform="translate(0 0)"/><path class="cls-11" d="M350.045,222.464l33.506,45.98.311-1.5a1.481,1.481,0,0,0-.284-1.172l-31.025-42.575a1.472,1.472,0,0,0-1.036-.612l-1.473-.118" transform="translate(0 0)"/><path class="cls-12" d="M361.626,286.369a1.233,1.233,0,0,1-.03.247l-.032.142.032-.142a1.229,1.229,0,0,0,.03-.247" transform="translate(0 0)"/><path class="cls-13" d="M383.279,269.758v0h0m-35.116-47.447h0m0,0-12.9,9.617h0l12.9-9.617h0" transform="translate(0 0)"/><path class="cls-12" d="M351.518,222.581l-1.473-.118,33.506,45.98-.272,1.314h0l-.77-1.041-.5-.677-2.844-3.843-.5-.679-2.644-3.572-.5-.679-2.909-3.931-.5-.679-2.909-3.931-.5-.679-2.909-3.93-.5-.679-2.909-3.93-.5-.68L358.96,236.9l-.5-.678-2.909-3.931-.5-.678-2.909-3.931-.5-.678-3.472-4.691,3.354.269m-3.357-.269h0" transform="translate(0 0)"/><path class="cls-14" d="M383.28,269.76l0,0-3.972,2.961-7.337-.588-3.333-4.5,13.873,1.087.77,1.041v0m-1.273-1.72-13.781-1.08a.331.331,0,0,0-.083,0l-2.89-3.9,13.91,1.137,2.844,3.843m-3.347-4.521-13.909-1.137-1.435-1.938q-.33-.782-.691-1.586l13.391,1.089,2.644,3.572m-3.146-4.251-13.19-1.072c-.571-1.242-1.2-2.523-1.9-3.848l12.184.99,2.909,3.931m-3.412-4.609-12.039-.978-.007-.011q-1.115-2.058-2.345-3.883l11.482.942,2.909,3.931m-3.412-4.61-11.44-.939q-.3-.43-.6-.846-1.2-1.644-2.464-3.1l11.6.951,2.909,3.93m-3.411-4.609-11.7-.961a46.981,46.981,0,0,0-4.127-4.044l12.921,1.075,2.909,3.93m-3.412-4.61-13.254-1.1q-.763-.631-1.524-1.208l-2.02-2.731L358.96,236.9l2.907,3.928m-3.409-4.606-13.892-1.113-2.909-3.931,13.892,1.113,2.909,3.931m-3.411-4.609L341.155,230.5l-1.414-1.911h0l-.509.38,6.15,8.31q-.87-.6-1.721-1.138l-5-6.749h0l-.51.38,4.069,5.5q-.764-.446-1.5-.84l-3.134-4.235h0l-.51.38,1.707,2.307-.119.508c-1.255-.6-2.4-1.077-3.407-1.458l12.9-9.617h0v0L351.636,227l-8.822-.706-.773.576,10.1.809,2.909,3.931M378.533,273.3l-3.675,2.74-2.387-3.225,6.062.486m-4.185,3.12-.566.422-8.64-11.673q-.411-1.16-.876-2.37l10.081,13.621h0m-1.076.8-.566.422-6.192-8.367q-.331-1.038-.688-2.115l7.445,10.059h0m-1.076.8-2.134,1.59c-.342-.79-.658-1.591-.959-2.4l.6-2.551,2.49,3.365h0M369.22,274a.309.309,0,0,0-.032.082l-.477,2.026c-.557-1.6-1.071-3.245-1.611-4.972L369.22,274m-29.778-40.234-.189-.094.029-.122.16.216" transform="translate(0 0)"/><path class="cls-12" d="M373.782,276.84l-.51.38h0l-7.445-10.059q-.326-.98-.684-1.993l8.64,11.674m-30.122-40.7q-.728-.46-1.436-.872l-4.07-5.5.51-.379h0l5,6.749" transform="translate(0 0)"/><path class="cls-12" d="M374.858,276.037l-.51.38h0L364.266,262.8q-.444-1.152-.95-2.352l1.435,1.938-.122-.01a.318.318,0,1,0-.051.634l.675.055,2.89,3.9a.318.318,0,0,0,.033.63l.46.036,3.333,4.5-.1-.008a.318.318,0,0,0-.342.292.314.314,0,0,0,.06.212.319.319,0,0,0,.232.13l.651.052,2.388,3.226m-27.77-37.52q-.858-.653-1.708-1.24l-6.15-8.311.51-.379h0l1.414,1.911-.144-.011a.318.318,0,0,0-.05.634l.7.056,2.909,3.931-.081-.006a.318.318,0,0,0-.342.292.315.315,0,0,0,.06.212.319.319,0,0,0,.232.13l.633.051,2.02,2.731" transform="translate(0 0)"/><path class="cls-12" d="M372.706,277.641l-.51.38h0l-2.491-3.365.1-.428a.318.318,0,0,0-.587-.228l-2.12-2.864q-.287-.915-.585-1.86l6.193,8.367m-31.983-43.213c-.436-.234-.865-.456-1.282-.664l-.16-.216.134-.569a.318.318,0,0,0-.619-.146l-.011.046-1.707-2.308.51-.379h0l3.134,4.235" transform="translate(0 0)"/><path class="cls-12" d="M339.363,232.72a.318.318,0,0,1,.053.26l-.134.569-.029.122q-.3-.146-.586-.284l.119-.508.011-.046a.318.318,0,0,1,.567-.114" transform="translate(0 0)"/><path class="cls-12" d="M369.754,273.967a.316.316,0,0,1,.052.26l-.1.428-.6,2.551q-.2-.546-.394-1.1l.477-2.026a.309.309,0,0,1,.032-.082.318.318,0,0,1,.534-.032" transform="translate(0 0)"/><path class="cls-12" d="M382.509,268.717h0l-13.873-1.087-.46-.036a.318.318,0,0,1-.033-.63.331.331,0,0,1,.083,0l13.781,1.08.5.677" transform="translate(0 0)"/><path class="cls-12" d="M379.163,264.2h0l-13.91-1.137-.675-.055a.318.318,0,1,1,.051-.634l.122.01,13.909,1.137.5.679" transform="translate(0 0)"/><path class="cls-12" d="M376.017,259.946h0l-13.391-1.089c-.1-.22-.2-.44-.3-.663l13.19,1.072.5.679" transform="translate(0 0)"/><path class="cls-12" d="M372.606,255.336h0l-12.184-.99q-.175-.331-.357-.667l12.039.978.5.679" transform="translate(0 0)"/><path class="cls-12" d="M369.194,250.727h0l-11.482-.942q-.229-.342-.461-.676l11.44.939.5.679" transform="translate(0 0)"/><path class="cls-12" d="M365.783,246.118h0l-11.6-.951c-.2-.233-.4-.462-.608-.688l11.7.961.5.679" transform="translate(0 0)"/><path class="cls-12" d="M362.371,241.509h0l-12.921-1.075q-.418-.362-.837-.708l13.254,1.1.5.68" transform="translate(0 0)"/><path class="cls-12" d="M358.96,236.9h0l-13.891-1.113-.633-.051a.319.319,0,0,1-.232-.13.315.315,0,0,1-.06-.212.318.318,0,0,1,.342-.292l.081.006,13.892,1.113.5.678" transform="translate(0 0)"/><path class="cls-12" d="M355.549,232.291h0l-13.892-1.113-.7-.056a.318.318,0,1,1,.05-.634l.144.011,13.892,1.113.5.678" transform="translate(0 0)"/><polyline class="cls-12" points="352.137 227.682 352.137 227.682 342.041 226.874 342.814 226.298 351.636 227.004 352.137 227.682"/><path class="cls-12" d="M379.306,272.722l-.773.576-6.062-.486-.651-.052a.319.319,0,0,1-.232-.13.314.314,0,0,1-.06-.212.318.318,0,0,1,.342-.292l.1.008,7.337.588" transform="translate(0 0)"/><path class="cls-15" d="M383.585,265.778a1.48,1.48,0,0,1,.277,1.163h0l-.311,1.5-33.506-45.98,1.473.118c.033,0,.066.007.1.012a1.5,1.5,0,0,1,.936.6l31.025,42.575,0,.007" transform="translate(0 0)"/><rect class="cls-17" x="165.911" y="182.597" width="170.126" height="170.126" rx="11.874" ry="11.874" transform="translate(-109.492 199.148) rotate(-36.081)"/><polygon class="cls-18" points="266.349 348.475 263.029 350.963 250.81 334.661 254.13 332.172 266.349 348.475 266.349 348.475"/><polygon class="cls-19" points="262.047 333.512 249.875 342.636 241.147 330.992 253.319 321.868 262.047 333.512 262.047 333.512"/><polygon class="cls-20" points="262.047 333.512 249.875 342.636 247.256 339.143 259.428 330.019 262.047 333.512 262.047 333.512"/><rect class="cls-21" x="232.343" y="249.919" width="50.493" height="53.137" rx="2" ry="2" transform="translate(-114.356 209.746) rotate(-36.854)"/><rect class="cls-22" x="240.222" y="258.21" width="34.736" height="36.556" rx="2.608" ry="2.608" transform="translate(-114.356 209.746) rotate(-36.854)"/><path class="cls-23" d="M232.173,268.009h0a2.188,2.188,0,0,1-3.05-.516l-4.538-6.054a2.188,2.188,0,0,1,.36-3.072h0a2.188,2.188,0,0,1,3.05.516l4.538,6.054A2.188,2.188,0,0,1,232.173,268.009Z" transform="translate(0 0)"/><path class="cls-23" d="M240.309,261.91h0a2.188,2.188,0,0,1-3.05-.516l-4.538-6.054a2.188,2.188,0,0,1,.36-3.072h0a2.188,2.188,0,0,1,3.05.516l4.538,6.054A2.188,2.188,0,0,1,240.309,261.91Z" transform="translate(0 0)"/><path class="cls-23" d="M248.446,255.811h0a2.188,2.188,0,0,1-3.05-.516l-4.538-6.054a2.188,2.188,0,0,1,.36-3.072h0a2.188,2.188,0,0,1,3.05.516l4.538,6.054A2.188,2.188,0,0,1,248.446,255.811Z" transform="translate(0 0)"/><path class="cls-23" d="M256.582,249.712h0a2.188,2.188,0,0,1-3.05-.516l-4.538-6.054a2.188,2.188,0,0,1,.36-3.072h0a2.188,2.188,0,0,1,3.05.516l4.538,6.054A2.188,2.188,0,0,1,256.582,249.712Z" transform="translate(0 0)"/><path class="cls-23" d="M265.825,312.9h0a2.188,2.188,0,0,1-3.05-.516l-4.538-6.054a2.188,2.188,0,0,1,.36-3.072h0a2.188,2.188,0,0,1,3.05.516l4.538,6.054A2.188,2.188,0,0,1,265.825,312.9Z" transform="translate(0 0)"/><path class="cls-23" d="M273.962,306.806h0a2.188,2.188,0,0,1-3.05-.516l-4.538-6.054a2.188,2.188,0,0,1,.36-3.072h0a2.188,2.188,0,0,1,3.05.516l4.538,6.054A2.188,2.188,0,0,1,273.962,306.806Z" transform="translate(0 0)"/><path class="cls-23" d="M282.1,300.707h0a2.188,2.188,0,0,1-3.05-.516l-4.538-6.054a2.188,2.188,0,0,1,.36-3.072h0a2.188,2.188,0,0,1,3.05.516l4.538,6.054A2.188,2.188,0,0,1,282.1,300.707Z" transform="translate(0 0)"/><path class="cls-23" d="M290.235,294.609h0a2.188,2.188,0,0,1-3.05-.516l-4.538-6.054a2.188,2.188,0,0,1,.36-3.072h0a2.188,2.188,0,0,1,3.05.516l4.538,6.054A2.188,2.188,0,0,1,290.235,294.609Z" transform="translate(0 0)"/><path class="cls-23" d="M264.712,251.089h0a2.188,2.188,0,0,1,.36-3.072l5.753-4.312a2.188,2.188,0,0,1,3.05.516h0a2.188,2.188,0,0,1-.36,3.072l-5.753,4.312A2.188,2.188,0,0,1,264.712,251.089Z" transform="translate(0 0)"/><path class="cls-23" d="M271.13,259.651h0a2.188,2.188,0,0,1,.36-3.072l5.753-4.312a2.188,2.188,0,0,1,3.05.516h0a2.188,2.188,0,0,1-.36,3.072l-5.753,4.312A2.188,2.188,0,0,1,271.13,259.651Z" transform="translate(0 0)"/><path class="cls-23" d="M277.549,268.214h0a2.188,2.188,0,0,1,.36-3.072l5.753-4.312a2.188,2.188,0,0,1,3.05.516h0a2.188,2.188,0,0,1-.36,3.072L280.6,268.73A2.188,2.188,0,0,1,277.549,268.214Z" transform="translate(0 0)"/><path class="cls-23" d="M283.967,276.777h0a2.188,2.188,0,0,1,.36-3.072l5.753-4.312a2.188,2.188,0,0,1,3.05.516h0a2.188,2.188,0,0,1-.36,3.072l-5.753,4.312A2.188,2.188,0,0,1,283.967,276.777Z" transform="translate(0 0)"/><path class="cls-23" d="M222.05,283.066h0a2.188,2.188,0,0,1,.36-3.072l5.753-4.312a2.188,2.188,0,0,1,3.05.516h0a2.188,2.188,0,0,1-.36,3.072l-5.753,4.312A2.188,2.188,0,0,1,222.05,283.066Z" transform="translate(0 0)"/><path class="cls-23" d="M228.469,291.629h0a2.188,2.188,0,0,1,.36-3.072l5.753-4.312a2.188,2.188,0,0,1,3.05.516h0a2.188,2.188,0,0,1-.36,3.072l-5.753,4.312A2.188,2.188,0,0,1,228.469,291.629Z" transform="translate(0 0)"/><path class="cls-23" d="M234.887,300.191h0a2.188,2.188,0,0,1,.36-3.072L241,292.807a2.188,2.188,0,0,1,3.05.516h0a2.188,2.188,0,0,1-.36,3.072l-5.753,4.312A2.188,2.188,0,0,1,234.887,300.191Z" transform="translate(0 0)"/><path class="cls-23" d="M241.3,308.754h0a2.188,2.188,0,0,1,.36-3.072l5.753-4.312a2.188,2.188,0,0,1,3.05.516h0a2.188,2.188,0,0,1-.36,3.072l-5.753,4.312A2.188,2.188,0,0,1,241.3,308.754Z" transform="translate(0 0)"/><polygon class="cls-24" points="285.832 244.483 297.128 259.554 295.909 260.468 284.613 245.397 285.832 244.483 285.832 244.483"/><polygon class="cls-24" points="288.574 242.428 299.87 257.499 298.652 258.412 287.355 243.341 288.574 242.428 288.574 242.428"/><polygon class="cls-24" points="291.011 240.601 302.308 255.672 301.089 256.585 289.793 241.514 291.011 240.601 291.011 240.601"/><polygon class="cls-25" points="294.935 240.915 303.107 251.817 292.138 260.039 283.966 249.137 294.935 240.915 294.935 240.915"/><path class="cls-26" d="M290.048,252.807a4.093,4.093,0,1,1,5.851.99,4.2,4.2,0,0,1-5.851-.99Z" transform="translate(0 0)"/><polygon class="cls-27" points="201.896 271.846 201.507 272.137 184.651 249.648 185.039 249.357 201.896 271.846 201.896 271.846"/><path class="cls-28" d="M200.006,266.238a.933.933,0,0,1-.032,1.3l-2.256,1.691a.933.933,0,0,1-1.257-.335L186.347,255.4a.933.933,0,0,1,.032-1.3l2.256-1.691a.933.933,0,0,1,1.257.335l10.114,13.493Z" transform="translate(0 0)"/><polygon class="cls-29" points="197.321 262.503 193.824 265.124 193.211 264.306 196.707 261.685 197.321 262.503 197.321 262.503"/><polygon class="cls-30" points="196.707 261.685 193.211 264.306 192.598 263.489 196.095 260.868 196.707 261.685 196.707 261.685"/><polygon class="cls-31" points="196.095 260.868 192.598 263.489 191.985 262.671 195.481 260.05 196.095 260.868 196.095 260.868"/><polygon class="cls-32" points="195.481 260.05 191.985 262.671 191.372 261.853 194.869 259.232 195.481 260.05 195.481 260.05"/><polygon class="cls-27" points="194.869 259.232 191.372 261.853 190.759 261.035 194.256 258.414 194.869 259.232 194.869 259.232"/><polygon class="cls-33" points="194.256 258.414 190.759 261.035 190.146 260.218 193.643 257.596 194.256 258.414 194.256 258.414"/><polygon class="cls-29" points="193.643 257.596 190.146 260.218 189.533 259.4 193.03 256.779 193.643 257.596 193.643 257.596"/><path class="cls-28" d="M191.064,253.144a1,1,0,0,1-.164,1.4l-3.108,2.33a1,1,0,0,1-1.39-.235l-.613-.818a1,1,0,0,1,.164-1.4l3.108-2.33a1,1,0,0,1,1.39.235l.613.818Z" transform="translate(0 0)"/><path class="cls-28" d="M200.565,265.819a1,1,0,0,1-.164,1.4l-3.108,2.33a1,1,0,0,1-1.39-.235l-.613-.818a1,1,0,0,1,.164-1.4l3.108-2.33a1,1,0,0,1,1.39.235l.613.818Z" transform="translate(0 0)"/><polygon class="cls-27" points="207.335 267.768 206.947 268.06 190.09 245.571 190.479 245.28 207.335 267.768 207.335 267.768"/><path class="cls-28" d="M205.51,262.112a.933.933,0,0,1-.032,1.3l-2.256,1.691a.933.933,0,0,1-1.257-.335l-10.114-13.493a.933.933,0,0,1,.032-1.3l2.256-1.691a.933.933,0,0,1,1.257.335l10.114,13.493Z" transform="translate(0 0)"/><polygon class="cls-29" points="202.76 258.426 199.263 261.047 198.65 260.229 202.147 257.608 202.76 258.426 202.76 258.426"/><polygon class="cls-30" points="202.147 257.608 198.65 260.229 198.037 259.411 201.534 256.79 202.147 257.608 202.147 257.608"/><polygon class="cls-31" points="201.534 256.79 198.037 259.411 197.424 258.593 200.921 255.972 201.534 256.79 201.534 256.79"/><polygon class="cls-32" points="200.921 255.972 197.424 258.593 196.811 257.776 200.308 255.155 200.921 255.972 200.921 255.972"/><polygon class="cls-27" points="200.308 255.155 196.811 257.776 196.198 256.958 199.695 254.337 200.308 255.155 200.308 255.155"/><polygon class="cls-33" points="199.695 254.337 196.198 256.958 195.585 256.14 199.082 253.519 199.695 254.337 199.695 254.337"/><polygon class="cls-29" points="199.082 253.519 195.585 256.14 194.972 255.323 198.469 252.702 199.082 253.519 199.082 253.519"/><path class="cls-28" d="M196.568,249.018a1,1,0,0,1-.164,1.4l-3.108,2.33a1,1,0,0,1-1.39-.235l-.613-.818a1,1,0,0,1,.164-1.4l3.108-2.33a1,1,0,0,1,1.39.235l.613.818Z" transform="translate(0 0)"/><path class="cls-28" d="M206.069,261.693a1,1,0,0,1-.164,1.4l-3.108,2.33a1,1,0,0,1-1.39-.235l-.613-.818a1,1,0,0,1,.164-1.4l3.108-2.33a1,1,0,0,1,1.39.235l.613.818Z" transform="translate(0 0)"/><polygon class="cls-27" points="237.518 227.446 237.825 227.854 216.455 243.872 216.149 243.463 237.518 227.446 237.518 227.446"/><path class="cls-28" d="M232.076,229.09a.916.916,0,0,1,1.285.1l1.78,2.374a.915.915,0,0,1-.269,1.261l-12.822,9.611a.915.915,0,0,1-1.285-.1l-1.78-2.374a.916.916,0,0,1,.269-1.261l12.822-9.611Z" transform="translate(0 0)"/><polygon class="cls-29" points="228.521 231.635 231.28 235.315 230.503 235.897 227.744 232.217 228.521 231.635 228.521 231.635"/><polygon class="cls-30" points="227.744 232.217 230.503 235.897 229.726 236.48 226.967 232.8 227.744 232.217 227.744 232.217"/><polygon class="cls-31" points="226.967 232.8 229.726 236.48 228.948 237.062 226.19 233.382 226.967 232.8 226.967 232.8"/><polygon class="cls-32" points="226.19 233.382 228.948 237.062 228.171 237.644 225.413 233.964 226.19 233.382 226.19 233.382"/><polygon class="cls-27" points="225.413 233.964 228.171 237.644 227.394 238.227 224.636 234.547 225.413 233.964 225.413 233.964"/><polygon class="cls-33" points="224.636 234.547 227.394 238.227 226.617 238.809 223.859 235.129 224.636 234.547 224.636 234.547"/><polygon class="cls-29" points="223.859 235.129 226.617 238.809 225.84 239.392 223.082 235.712 223.859 235.129 223.859 235.129"/><path class="cls-28" d="M219.59,237.531a1,1,0,0,1,1.39.235l2.452,3.271a1,1,0,0,1-.164,1.4l-.777.583a1,1,0,0,1-1.39-.235l-2.452-3.271a1,1,0,0,1,.164-1.4l.777-.583Z" transform="translate(0 0)"/><path class="cls-28" d="M231.635,228.5a1,1,0,0,1,1.39.235l2.452,3.271a1,1,0,0,1-.164,1.4l-.777.583a1,1,0,0,1-1.39-.235l-2.452-3.271a1,1,0,0,1,.164-1.4l.777-.583Z" transform="translate(0 0)"/><polygon class="cls-27" points="233.227 221.721 233.534 222.13 212.164 238.148 211.858 237.739 233.227 221.721 233.227 221.721"/><path class="cls-28" d="M227.734,223.3a.915.915,0,0,1,1.285.1l1.78,2.374a.916.916,0,0,1-.269,1.261l-12.822,9.611a.916.916,0,0,1-1.285-.1l-1.78-2.374a.915.915,0,0,1,.269-1.261l12.822-9.611Z" transform="translate(0 0)"/><polygon class="cls-29" points="224.231 225.91 226.989 229.59 226.212 230.173 223.453 226.493 224.231 225.91 224.231 225.91"/><polygon class="cls-30" points="223.453 226.493 226.212 230.173 225.435 230.755 222.677 227.075 223.453 226.493 223.453 226.493"/><polygon class="cls-31" points="222.677 227.075 225.435 230.755 224.658 231.338 221.899 227.658 222.677 227.075 222.677 227.075"/><polygon class="cls-32" points="221.899 227.658 224.658 231.338 223.881 231.92 221.122 228.24 221.899 227.658 221.899 227.658"/><polygon class="cls-27" points="221.122 228.24 223.881 231.92 223.103 232.503 220.345 228.823 221.122 228.24 221.122 228.24"/><polygon class="cls-33" points="220.345 228.823 223.103 232.503 222.327 233.085 219.568 229.405 220.345 228.823 220.345 228.823"/><polygon class="cls-29" points="219.568 229.405 222.327 233.085 221.55 233.667 218.791 229.987 219.568 229.405 219.568 229.405"/><path class="cls-28" d="M215.248,231.738a1,1,0,0,1,1.39.236l2.452,3.271a1,1,0,0,1-.164,1.4l-.777.583a1,1,0,0,1-1.39-.235l-2.452-3.271a1,1,0,0,1,.164-1.4l.777-.583Z" transform="translate(0 0)"/><path class="cls-28" d="M227.293,222.71a1,1,0,0,1,1.39.236l2.452,3.271a1,1,0,0,1-.164,1.4l-.777.583a1,1,0,0,1-1.39-.235l-2.452-3.271a1,1,0,0,1,.164-1.4l.777-.583Z" transform="translate(0 0)"/><polygon class="cls-27" points="251.098 199.843 251.486 199.551 268.343 222.04 267.954 222.331 251.098 199.843 251.098 199.843"/><path class="cls-28" d="M252.987,205.451a.933.933,0,0,1,.032-1.3l2.256-1.691a.933.933,0,0,1,1.257.335l10.114,13.493a.933.933,0,0,1-.032,1.3l-2.256,1.691a.933.933,0,0,1-1.257-.335l-10.114-13.493Z" transform="translate(0 0)"/><polygon class="cls-29" points="255.673 209.185 259.17 206.564 259.783 207.382 256.286 210.003 255.673 209.185 255.673 209.185"/><polygon class="cls-30" points="256.286 210.003 259.783 207.382 260.396 208.2 256.899 210.821 256.286 210.003 256.286 210.003"/><polygon class="cls-31" points="256.899 210.821 260.396 208.2 261.009 209.018 257.512 211.639 256.899 210.821 256.899 210.821"/><polygon class="cls-32" points="257.512 211.639 261.009 209.018 261.622 209.835 258.125 212.456 257.512 211.639 257.512 211.639"/><polygon class="cls-27" points="258.125 212.456 261.622 209.835 262.235 210.653 258.738 213.274 258.125 212.456 258.125 212.456"/><polygon class="cls-33" points="258.738 213.274 262.235 210.653 262.848 211.471 259.351 214.092 258.738 213.274 258.738 213.274"/><polygon class="cls-29" points="259.351 214.092 262.848 211.471 263.461 212.288 259.964 214.909 259.351 214.092 259.351 214.092"/><path class="cls-28" d="M261.93,218.545a1,1,0,0,1,.164-1.4l3.108-2.33a1,1,0,0,1,1.39.235l.613.818a1,1,0,0,1-.164,1.4l-3.108,2.33a1,1,0,0,1-1.39-.235l-.613-.818Z" transform="translate(0 0)"/><path class="cls-28" d="M252.429,205.869a1,1,0,0,1,.164-1.4l3.108-2.33a1,1,0,0,1,1.39.235l.613.818a1,1,0,0,1-.164,1.4l-3.108,2.33a1,1,0,0,1-1.39-.235l-.613-.818Z" transform="translate(0 0)"/><polygon class="cls-27" points="245.658 203.92 246.046 203.629 262.903 226.117 262.515 226.408 245.658 203.92 245.658 203.92"/><path class="cls-28" d="M247.483,209.576a.933.933,0,0,1,.032-1.3l2.256-1.691a.933.933,0,0,1,1.257.335l10.114,13.493a.933.933,0,0,1-.032,1.3l-2.256,1.691a.933.933,0,0,1-1.257-.335l-10.114-13.493Z" transform="translate(0 0)"/><polygon class="cls-29" points="250.233 213.262 253.73 210.641 254.343 211.459 250.847 214.08 250.233 213.262 250.233 213.262"/><polygon class="cls-30" points="250.847 214.08 254.343 211.459 254.956 212.277 251.459 214.898 250.847 214.08 250.847 214.08"/><polygon class="cls-31" points="251.459 214.898 254.956 212.277 255.569 213.095 252.072 215.716 251.459 214.898 251.459 214.898"/><polygon class="cls-32" points="252.072 215.716 255.569 213.095 256.182 213.912 252.685 216.533 252.072 215.716 252.072 215.716"/><polygon class="cls-27" points="252.685 216.533 256.182 213.912 256.795 214.73 253.298 217.351 252.685 216.533 252.685 216.533"/><polygon class="cls-33" points="253.298 217.351 256.795 214.73 257.408 215.548 253.911 218.169 253.298 217.351 253.298 217.351"/><polygon class="cls-29" points="253.911 218.169 257.408 215.548 258.021 216.366 254.524 218.987 253.911 218.169 253.911 218.169"/><path class="cls-28" d="M256.425,222.671a1,1,0,0,1,.164-1.4l3.108-2.33a1,1,0,0,1,1.39.235l.613.818a1,1,0,0,1-.164,1.4l-3.108,2.33a1,1,0,0,1-1.39-.235l-.613-.818Z" transform="translate(0 0)"/><path class="cls-28" d="M246.924,210a1,1,0,0,1,.164-1.4l3.108-2.33a1,1,0,0,1,1.39.235l.613.818a1,1,0,0,1-.164,1.4l-3.108,2.33a1,1,0,0,1-1.39-.235l-.613-.818Z" transform="translate(0 0)"/><path class="cls-27" d="M282.458,235.7a4.111,4.111,0,1,1,.659-5.624,4.007,4.007,0,0,1-.659,5.624Zm-5.525-7.371a5.113,5.113,0,1,0,6.946,1.176,4.984,4.984,0,0,0-6.946-1.176Z" transform="translate(0 0)"/><path class="cls-27" d="M281.671,231.157a2.1,2.1,0,1,1-3-.507,2.15,2.15,0,0,1,3,.507Z" transform="translate(0 0)"/><path class="cls-27" d="M240.014,322.778a4.111,4.111,0,1,1,.659-5.624,4.007,4.007,0,0,1-.659,5.624Zm-5.525-7.371a5.113,5.113,0,1,0,6.946,1.176,4.984,4.984,0,0,0-6.946-1.176Z" transform="translate(0 0)"/><path class="cls-27" d="M239.227,318.238a2.1,2.1,0,1,1-3-.507,2.15,2.15,0,0,1,3,.507Z" transform="translate(0 0)"/><path class="cls-21" d="M315.113,252.988a1.2,1.2,0,0,1,.2-1.685l2.806-2.1a1.2,1.2,0,0,1,1.673.283L322,252.436a1.2,1.2,0,0,1-.2,1.685l-2.806,2.1a1.2,1.2,0,0,1-1.673-.283l-2.213-2.953Z" transform="translate(0 0)"/><polygon class="cls-34" points="316.606 252.382 318.788 250.746 320.509 253.043 318.327 254.678 316.606 252.382 316.606 252.382"/><path class="cls-21" d="M310.437,256.493a1.2,1.2,0,0,1,.2-1.685l2.805-2.1a1.2,1.2,0,0,1,1.673.283l2.213,2.953a1.2,1.2,0,0,1-.2,1.685l-2.805,2.1a1.2,1.2,0,0,1-1.673-.283l-2.213-2.953Z" transform="translate(0 0)"/><polygon class="cls-34" points="311.93 255.887 314.112 254.251 315.833 256.548 313.651 258.183 311.93 255.887 311.93 255.887"/><path class="cls-21" d="M311.578,248.273a1.2,1.2,0,0,1,.2-1.685l2.806-2.1a1.2,1.2,0,0,1,1.673.283l2.213,2.952a1.2,1.2,0,0,1-.2,1.685l-2.806,2.1a1.2,1.2,0,0,1-1.673-.283l-2.213-2.952Z" transform="translate(0 0)"/><polygon class="cls-34" points="313.071 247.666 315.253 246.03 316.974 248.327 314.792 249.962 313.071 247.666 313.071 247.666"/><path class="cls-21" d="M306.9,251.778a1.2,1.2,0,0,1,.2-1.685l2.805-2.1a1.2,1.2,0,0,1,1.673.283l2.213,2.952a1.2,1.2,0,0,1-.2,1.685l-2.805,2.1a1.2,1.2,0,0,1-1.673-.283l-2.213-2.952Z" transform="translate(0 0)"/><polygon class="cls-34" points="308.395 251.171 310.577 249.535 312.298 251.832 310.116 253.467 308.395 251.171 308.395 251.171"/><path class="cls-21" d="M308.043,243.556a1.2,1.2,0,0,1,.2-1.685l2.806-2.1a1.2,1.2,0,0,1,1.673.283L314.932,243a1.2,1.2,0,0,1-.2,1.685l-2.806,2.1a1.2,1.2,0,0,1-1.673-.283l-2.213-2.953Z" transform="translate(0 0)"/><polygon class="cls-34" points="309.536 242.95 311.718 241.314 313.44 243.611 311.257 245.246 309.536 242.95 309.536 242.95"/><path class="cls-21" d="M303.367,247.062a1.2,1.2,0,0,1,.2-1.685l2.805-2.1a1.2,1.2,0,0,1,1.673.283l2.213,2.953a1.2,1.2,0,0,1-.2,1.685l-2.805,2.1a1.2,1.2,0,0,1-1.673-.283l-2.213-2.953Z" transform="translate(0 0)"/><polygon class="cls-34" points="304.86 246.455 307.042 244.82 308.763 247.116 306.581 248.752 304.86 246.455 304.86 246.455"/><path class="cls-27" d="M337.955,284.478a.4.4,0,0,1-.558-.094l-10.451-13.943a.39.39,0,1,1,.623-.467l10.451,13.943a.4.4,0,0,1-.066.562Z" transform="translate(0 0)"/><path class="cls-35" d="M324.735,262.172a2.682,2.682,0,1,1-3.834-.649,2.751,2.751,0,0,1,3.834.649Z" transform="translate(0 0)"/><path class="cls-27" d="M323.469,263.121a1.1,1.1,0,1,1-1.568-.266,1.126,1.126,0,0,1,1.568.266Z" transform="translate(0 0)"/><path class="cls-27" d="M297.382,230.348a.4.4,0,0,1-.558-.094l-10.451-13.943a.39.39,0,1,1,.623-.467l10.451,13.943a.4.4,0,0,1-.066.562Z" transform="translate(0 0)"/><path class="cls-35" d="M304.141,234.7a2.682,2.682,0,1,0-.452,3.862,2.751,2.751,0,0,0,.452-3.862Z" transform="translate(0 0)"/><path class="cls-27" d="M302.874,235.646a1.1,1.1,0,1,0-.185,1.58,1.126,1.126,0,0,0,.185-1.58Z" transform="translate(0 0)"/><path class="cls-21" d="M217.295,326.308a1.2,1.2,0,0,1,.2-1.685l2.806-2.1a1.2,1.2,0,0,1,1.673.283l2.213,2.953a1.2,1.2,0,0,1-.2,1.685l-2.806,2.1a1.2,1.2,0,0,1-1.673-.283l-2.213-2.953Z" transform="translate(0 0)"/><polygon class="cls-34" points="218.788 325.702 220.97 324.066 222.691 326.363 220.509 327.998 218.788 325.702 218.788 325.702"/><path class="cls-21" d="M212.619,329.813a1.2,1.2,0,0,1,.2-1.685l2.805-2.1a1.2,1.2,0,0,1,1.673.283l2.213,2.953a1.2,1.2,0,0,1-.2,1.685l-2.805,2.1a1.2,1.2,0,0,1-1.673-.283l-2.213-2.953Z" transform="translate(0 0)"/><polygon class="cls-34" points="214.112 329.207 216.294 327.571 218.015 329.868 215.833 331.503 214.112 329.207 214.112 329.207"/><path class="cls-21" d="M213.76,321.593a1.2,1.2,0,0,1,.2-1.685l2.806-2.1a1.2,1.2,0,0,1,1.673.283l2.213,2.952a1.2,1.2,0,0,1-.2,1.685l-2.806,2.1a1.2,1.2,0,0,1-1.673-.283l-2.213-2.952Z" transform="translate(0 0)"/><polygon class="cls-34" points="215.253 320.986 217.435 319.35 219.156 321.647 216.974 323.282 215.253 320.986 215.253 320.986"/><path class="cls-21" d="M209.084,325.1a1.2,1.2,0,0,1,.2-1.685l2.805-2.1a1.2,1.2,0,0,1,1.673.283l2.213,2.952a1.2,1.2,0,0,1-.2,1.685l-2.805,2.1a1.2,1.2,0,0,1-1.673-.283l-2.213-2.952Z" transform="translate(0 0)"/><polygon class="cls-34" points="210.577 324.491 212.759 322.855 214.48 325.152 212.298 326.787 210.577 324.491 210.577 324.491"/><path class="cls-21" d="M210.225,316.877a1.2,1.2,0,0,1,.2-1.685l2.806-2.1a1.2,1.2,0,0,1,1.673.283l2.213,2.953a1.2,1.2,0,0,1-.2,1.685l-2.806,2.1a1.2,1.2,0,0,1-1.673-.283l-2.213-2.953Z" transform="translate(0 0)"/><polygon class="cls-34" points="211.718 316.27 213.9 314.635 215.622 316.931 213.44 318.567 211.718 316.27 211.718 316.27"/><path class="cls-21" d="M205.549,320.382a1.2,1.2,0,0,1,.2-1.685l2.805-2.1a1.2,1.2,0,0,1,1.673.283l2.213,2.953a1.2,1.2,0,0,1-.2,1.685l-2.805,2.1a1.2,1.2,0,0,1-1.673-.283l-2.213-2.953Z" transform="translate(0 0)"/><polygon class="cls-34" points="207.042 319.775 209.224 318.14 210.946 320.436 208.764 322.072 207.042 319.775 207.042 319.775"/><path class="cls-27" d="M240.138,357.8a.4.4,0,0,1-.558-.094l-10.451-13.943a.39.39,0,1,1,.623-.467L240.2,357.237a.4.4,0,0,1-.066.562Z" transform="translate(0 0)"/><path class="cls-35" d="M226.917,335.492a2.682,2.682,0,1,1-3.834-.649,2.751,2.751,0,0,1,3.834.649Z" transform="translate(0 0)"/><path class="cls-27" d="M225.651,336.441a1.1,1.1,0,1,1-1.568-.266,1.126,1.126,0,0,1,1.568.266Z" transform="translate(0 0)"/><path class="cls-27" d="M199.564,303.668a.4.4,0,0,1-.558-.094l-10.451-13.943a.39.39,0,1,1,.623-.467l10.451,13.943a.4.4,0,0,1-.066.562Z" transform="translate(0 0)"/><path class="cls-35" d="M206.323,308.017a2.682,2.682,0,1,0-.452,3.862,2.751,2.751,0,0,0,.452-3.862Z" transform="translate(0 0)"/><path class="cls-27" d="M205.057,308.966a1.1,1.1,0,1,0-.185,1.58,1.126,1.126,0,0,0,.185-1.58Z" transform="translate(0 0)"/><path class="cls-27" d="M307.736,304.5c.136.181-.129.609-.593.957L271.5,332.178c-.463.347-.949.482-1.084.3s.13-.61.593-.957l35.648-26.72c.464-.348.949-.482,1.085-.3Z" transform="translate(0 0)"/><path class="cls-27" d="M305.325,301.285c.136.181-.129.609-.593.957l-35.648,26.72c-.463.347-.949.482-1.084.3s.13-.61.593-.957l35.648-26.72c.464-.348.949-.482,1.085-.3Z" transform="translate(0 0)"/><path class="cls-27" d="M310.147,307.719c.136.181-.13.61-.593.957L273.907,335.4c-.464.348-.949.482-1.084.3s.129-.609.593-.957l35.648-26.72c.463-.347.949-.482,1.084-.3Z" transform="translate(0 0)"/><polygon class="cls-36" points="322.681 291.259 326.038 295.738 321.783 298.928 318.426 294.449 322.681 291.259 322.681 291.259"/><polygon class="cls-36" points="313.09 278.464 316.447 282.943 312.192 286.133 308.835 281.654 313.09 278.464 313.09 278.464"/><polygon class="cls-36" points="317.886 284.862 321.243 289.34 316.987 292.53 313.63 288.052 317.886 284.862 317.886 284.862"/><polygon class="cls-36" points="308.295 272.066 311.652 276.545 307.396 279.735 304.039 275.256 308.295 272.066 308.295 272.066"/><polygon class="cls-36" points="323.965 280.305 327.322 284.784 323.067 287.973 319.71 283.495 323.965 280.305 323.965 280.305"/><polygon class="cls-36" points="314.374 267.51 317.731 271.988 313.476 275.178 310.119 270.699 314.374 267.51 314.374 267.51"/><polygon class="cls-36" points="319.17 273.907 322.527 278.386 318.271 281.576 314.914 277.097 319.17 273.907 319.17 273.907"/><polygon class="cls-36" points="309.579 261.112 312.935 265.59 308.68 268.78 305.323 264.302 309.579 261.112 309.579 261.112"/><polygon class="cls-36" points="224.778 304.352 228.135 308.831 223.88 312.02 220.523 307.542 224.778 304.352 224.778 304.352"/><polygon class="cls-36" points="215.188 291.557 218.545 296.035 214.289 299.225 210.932 294.746 215.188 291.557 215.188 291.557"/><polygon class="cls-36" points="219.983 297.954 223.34 302.433 219.084 305.623 215.727 301.144 219.983 297.954 219.983 297.954"/><polygon class="cls-36" points="210.392 285.159 213.749 289.638 209.494 292.828 206.137 288.349 210.392 285.159 210.392 285.159"/><polygon class="cls-36" points="226.062 293.397 229.419 297.876 225.164 301.066 221.807 296.587 226.062 293.397 226.062 293.397"/><polygon class="cls-36" points="216.472 280.602 219.829 285.081 215.573 288.271 212.216 283.792 216.472 280.602 216.472 280.602"/><polygon class="cls-36" points="221.267 287 224.624 291.479 220.368 294.668 217.011 290.19 221.267 287 221.267 287"/><polygon class="cls-36" points="211.676 274.205 215.033 278.683 210.777 281.872 207.421 277.394 211.676 274.205 211.676 274.205"/><path class="cls-21" d="M257.471,182.986a1.417,1.417,0,0,1,1.974.334l2.611,3.484a1.416,1.416,0,0,1-.233,1.988l-3.31,2.481a1.416,1.416,0,0,1-1.974-.334l-2.611-3.484a1.417,1.417,0,0,1,.233-1.989l3.31-2.481Z" transform="translate(0 0)"/><polygon class="cls-34" points="258.263 184.81 260.294 187.519 257.72 189.449 255.689 186.74 258.263 184.81 258.263 184.81"/><path class="cls-21" d="M274.88,206.212a1.417,1.417,0,0,1,1.974.334l2.611,3.484a1.416,1.416,0,0,1-.233,1.988l-3.31,2.481a1.416,1.416,0,0,1-1.974-.334l-2.611-3.484a1.417,1.417,0,0,1,.233-1.989l3.31-2.481Z" transform="translate(0 0)"/><polygon class="cls-34" points="275.673 208.036 277.704 210.746 275.129 212.676 273.098 209.966 275.673 208.036 275.673 208.036"/><path class="cls-21" d="M270.528,200.406a1.416,1.416,0,0,1,1.974.334l2.611,3.484a1.417,1.417,0,0,1-.233,1.989l-3.31,2.481a1.417,1.417,0,0,1-1.974-.334l-2.611-3.484a1.416,1.416,0,0,1,.233-1.988l3.31-2.481Z" transform="translate(0 0)"/><polygon class="cls-34" points="271.321 202.23 273.352 204.939 270.777 206.869 268.746 204.16 271.321 202.23 271.321 202.23"/><path class="cls-21" d="M266.175,194.6a1.416,1.416,0,0,1,1.974.334l2.611,3.484a1.417,1.417,0,0,1-.233,1.989l-3.31,2.481a1.417,1.417,0,0,1-1.974-.334l-2.611-3.484a1.416,1.416,0,0,1,.233-1.988l3.31-2.481Z" transform="translate(0 0)"/><polygon class="cls-34" points="266.968 196.423 268.999 199.133 266.425 201.063 264.393 198.353 266.968 196.423 266.968 196.423"/><path class="cls-21" d="M261.823,188.792a1.417,1.417,0,0,1,1.974.334l2.611,3.484a1.417,1.417,0,0,1-.233,1.989l-3.31,2.481a1.417,1.417,0,0,1-1.974-.334l-2.611-3.484a1.417,1.417,0,0,1,.233-1.989l3.31-2.481Z" transform="translate(0 0)"/><polygon class="cls-34" points="262.616 190.616 264.647 193.326 262.072 195.256 260.041 192.546 262.616 190.616 262.616 190.616"/><path class="cls-21" d="M267.4,175.541a1.417,1.417,0,0,1,1.974.334l2.611,3.484a1.416,1.416,0,0,1-.233,1.988l-3.311,2.481a1.416,1.416,0,0,1-1.974-.334l-2.611-3.484a1.416,1.416,0,0,1,.233-1.988l3.311-2.481Z" transform="translate(0 0)"/><polygon class="cls-34" points="268.195 177.365 270.226 180.075 267.651 182.005 265.62 179.295 268.195 177.365 268.195 177.365"/><path class="cls-21" d="M284.812,198.768a1.417,1.417,0,0,1,1.974.334l2.611,3.484a1.416,1.416,0,0,1-.233,1.988l-3.311,2.481a1.416,1.416,0,0,1-1.974-.334l-2.611-3.484a1.416,1.416,0,0,1,.233-1.988l3.311-2.481Z" transform="translate(0 0)"/><polygon class="cls-34" points="285.605 200.592 287.636 203.301 285.061 205.231 283.03 202.522 285.605 200.592 285.605 200.592"/><path class="cls-21" d="M280.46,192.961a1.416,1.416,0,0,1,1.974.334l2.611,3.484a1.417,1.417,0,0,1-.233,1.989l-3.311,2.481a1.416,1.416,0,0,1-1.974-.334l-2.611-3.484a1.416,1.416,0,0,1,.233-1.988l3.311-2.481Z" transform="translate(0 0)"/><polygon class="cls-34" points="281.252 194.785 283.283 197.495 280.709 199.425 278.678 196.715 281.252 194.785 281.252 194.785"/><path class="cls-21" d="M276.107,187.155a1.416,1.416,0,0,1,1.974.334l2.611,3.484a1.417,1.417,0,0,1-.233,1.989l-3.311,2.481a1.416,1.416,0,0,1-1.974-.334l-2.611-3.484a1.416,1.416,0,0,1,.233-1.988l3.311-2.481Z" transform="translate(0 0)"/><polygon class="cls-34" points="276.9 188.978 278.931 191.688 276.356 193.618 274.325 190.908 276.9 188.978 276.9 188.978"/><path class="cls-21" d="M271.755,181.348a1.417,1.417,0,0,1,1.974.334l2.611,3.484a1.417,1.417,0,0,1-.233,1.989l-3.311,2.481a1.417,1.417,0,0,1-1.974-.334l-2.611-3.484a1.417,1.417,0,0,1,.233-1.988l3.311-2.481Z" transform="translate(0 0)"/><polygon class="cls-34" points="272.548 183.172 274.579 185.882 272.004 187.812 269.973 185.102 272.548 183.172 272.548 183.172"/><rect class="cls-37" x="264.234" y="175.202" width="15.281" height="40.203" transform="translate(-62.809 202.09) rotate(-36.854)"/><rect class="cls-38" x="265.379" y="178.639" width="3.82" height="40.203" transform="translate(-65.787 200.027) rotate(-36.854)"/><path class="cls-21" d="M200.035,229.471a1.417,1.417,0,0,1,.233-1.989L203.579,225a1.417,1.417,0,0,1,1.974.334l2.611,3.484a1.417,1.417,0,0,1-.233,1.988l-3.311,2.481a1.417,1.417,0,0,1-1.974-.334l-2.611-3.484Z" transform="translate(0 0)"/><polygon class="cls-34" points="201.797 228.755 204.371 226.825 206.402 229.535 203.828 231.465 201.797 228.755 201.797 228.755"/><path class="cls-21" d="M222.106,212.928a1.417,1.417,0,0,1,.233-1.989l3.311-2.481a1.416,1.416,0,0,1,1.974.334l2.611,3.484a1.416,1.416,0,0,1-.233,1.988l-3.311,2.481a1.417,1.417,0,0,1-1.974-.334l-2.611-3.484Z" transform="translate(0 0)"/><polygon class="cls-34" points="223.867 212.212 226.442 210.282 228.473 212.992 225.898 214.921 223.867 212.212 223.867 212.212"/><path class="cls-21" d="M216.588,217.063a1.417,1.417,0,0,1,.233-1.988l3.311-2.481a1.417,1.417,0,0,1,1.974.334l2.611,3.484a1.417,1.417,0,0,1-.233,1.989l-3.311,2.481a1.417,1.417,0,0,1-1.974-.334l-2.611-3.484Z" transform="translate(0 0)"/><polygon class="cls-34" points="218.35 216.348 220.924 214.418 222.955 217.127 220.381 219.057 218.35 216.348 218.35 216.348"/><path class="cls-21" d="M211.071,221.2a1.416,1.416,0,0,1,.233-1.988l3.311-2.481a1.417,1.417,0,0,1,1.974.334l2.611,3.484a1.417,1.417,0,0,1-.233,1.989l-3.311,2.481a1.416,1.416,0,0,1-1.974-.334l-2.611-3.484Z" transform="translate(0 0)"/><polygon class="cls-34" points="212.832 220.484 215.407 218.553 217.438 221.263 214.863 223.193 212.832 220.484 212.832 220.484"/><path class="cls-21" d="M205.553,225.335a1.417,1.417,0,0,1,.233-1.989l3.311-2.481a1.417,1.417,0,0,1,1.974.334l2.611,3.484a1.417,1.417,0,0,1-.233,1.989l-3.311,2.481a1.417,1.417,0,0,1-1.974-.334l-2.611-3.484Z" transform="translate(0 0)"/><polygon class="cls-34" points="207.314 224.619 209.889 222.689 211.92 225.399 209.345 227.329 207.314 224.619 207.314 224.619"/><path class="cls-21" d="M192.2,219.019a1.417,1.417,0,0,1,.233-1.989l3.311-2.481a1.417,1.417,0,0,1,1.974.334l2.611,3.484a1.416,1.416,0,0,1-.233,1.988l-3.311,2.481a1.416,1.416,0,0,1-1.974-.334l-2.611-3.484Z" transform="translate(0 0)"/><polygon class="cls-34" points="193.962 218.303 196.537 216.373 198.568 219.083 195.993 221.013 193.962 218.303 193.962 218.303"/><path class="cls-21" d="M214.271,202.476a1.417,1.417,0,0,1,.233-1.989l3.311-2.481a1.416,1.416,0,0,1,1.974.334l2.611,3.484a1.416,1.416,0,0,1-.233,1.988l-3.311,2.481a1.416,1.416,0,0,1-1.974-.334l-2.611-3.484Z" transform="translate(0 0)"/><polygon class="cls-34" points="216.033 201.76 218.608 199.83 220.639 202.54 218.064 204.469 216.033 201.76 216.033 201.76"/><path class="cls-21" d="M208.754,206.612a1.417,1.417,0,0,1,.233-1.988l3.311-2.481a1.417,1.417,0,0,1,1.974.334l2.611,3.484a1.416,1.416,0,0,1-.233,1.988l-3.311,2.481a1.416,1.416,0,0,1-1.974-.334l-2.611-3.484Z" transform="translate(0 0)"/><polygon class="cls-34" points="210.515 205.896 213.09 203.966 215.121 206.675 212.546 208.605 210.515 205.896 210.515 205.896"/><path class="cls-21" d="M203.236,210.747a1.416,1.416,0,0,1,.233-1.988l3.311-2.481a1.417,1.417,0,0,1,1.974.334l2.611,3.484a1.416,1.416,0,0,1-.233,1.988l-3.311,2.481a1.416,1.416,0,0,1-1.974-.334l-2.611-3.484Z" transform="translate(0 0)"/><polygon class="cls-34" points="204.997 210.032 207.572 208.101 209.603 210.811 207.028 212.741 204.997 210.032 204.997 210.032"/><path class="cls-21" d="M197.718,214.883a1.417,1.417,0,0,1,.233-1.989l3.311-2.481a1.417,1.417,0,0,1,1.974.334l2.611,3.484a1.417,1.417,0,0,1-.233,1.988L202.3,218.7a1.417,1.417,0,0,1-1.974-.334l-2.611-3.484Z" transform="translate(0 0)"/><polygon class="cls-34" points="199.48 214.167 202.055 212.237 204.086 214.947 201.511 216.877 199.48 214.167 199.48 214.167"/><rect class="cls-37" x="203.177" y="196.546" width="16.081" height="38.202" transform="translate(165.346 513.997) rotate(-126.854)"/><rect class="cls-38" x="212.824" y="201.372" width="4.02" height="38.202" transform="translate(167.271 524.61) rotate(-126.854)"/><path class="cls-21" d="M189.261,280.34a1.417,1.417,0,0,1-1.974-.334l-2.611-3.484a1.416,1.416,0,0,1,.233-1.988l3.31-2.481a1.416,1.416,0,0,1,1.974.334l2.611,3.484a1.417,1.417,0,0,1-.233,1.989l-3.31,2.481Z" transform="translate(0 0)"/><polygon class="cls-34" points="188.468 278.516 186.437 275.806 189.012 273.877 191.043 276.586 188.468 278.516 188.468 278.516"/><path class="cls-21" d="M171.851,257.114a1.417,1.417,0,0,1-1.974-.334l-2.611-3.484a1.416,1.416,0,0,1,.233-1.988l3.31-2.481a1.416,1.416,0,0,1,1.974.334l2.611,3.484a1.417,1.417,0,0,1-.233,1.989l-3.31,2.481Z" transform="translate(0 0)"/><polygon class="cls-34" points="171.058 255.29 169.027 252.58 171.602 250.65 173.633 253.36 171.058 255.29 171.058 255.29"/><path class="cls-21" d="M176.2,262.92a1.416,1.416,0,0,1-1.974-.334l-2.611-3.484a1.417,1.417,0,0,1,.233-1.989l3.31-2.481a1.417,1.417,0,0,1,1.974.334l2.611,3.484a1.416,1.416,0,0,1-.233,1.988l-3.31,2.481Z" transform="translate(0 0)"/><polygon class="cls-34" points="175.411 261.096 173.38 258.387 175.955 256.457 177.986 259.166 175.411 261.096 175.411 261.096"/><path class="cls-21" d="M180.556,268.727a1.416,1.416,0,0,1-1.974-.334l-2.611-3.484a1.417,1.417,0,0,1,.233-1.989l3.31-2.481a1.417,1.417,0,0,1,1.974.334l2.611,3.484a1.416,1.416,0,0,1-.233,1.988l-3.31,2.481Z" transform="translate(0 0)"/><polygon class="cls-34" points="179.763 266.903 177.732 264.193 180.307 262.263 182.338 264.973 179.763 266.903 179.763 266.903"/><path class="cls-21" d="M184.909,274.534a1.417,1.417,0,0,1-1.974-.334l-2.611-3.484a1.417,1.417,0,0,1,.233-1.989l3.31-2.481a1.417,1.417,0,0,1,1.974.334l2.611,3.484a1.417,1.417,0,0,1-.233,1.989l-3.31,2.481Z" transform="translate(0 0)"/><polygon class="cls-34" points="184.116 272.71 182.084 270 184.659 268.07 186.69 270.78 184.116 272.71 184.116 272.71"/><path class="cls-21" d="M179.329,287.785a1.417,1.417,0,0,1-1.974-.334l-2.611-3.484a1.416,1.416,0,0,1,.233-1.988l3.311-2.481a1.416,1.416,0,0,1,1.974.334l2.611,3.484a1.416,1.416,0,0,1-.233,1.988l-3.311,2.481Z" transform="translate(0 0)"/><polygon class="cls-34" points="178.536 285.961 176.505 283.251 179.08 281.321 181.111 284.031 178.536 285.961 178.536 285.961"/><path class="cls-21" d="M161.92,264.558a1.417,1.417,0,0,1-1.974-.334l-2.611-3.484a1.416,1.416,0,0,1,.233-1.988l3.311-2.481a1.416,1.416,0,0,1,1.974.334l2.611,3.484a1.416,1.416,0,0,1-.233,1.988l-3.311,2.481Z" transform="translate(0 0)"/><polygon class="cls-34" points="161.127 262.734 159.096 260.024 161.67 258.095 163.701 260.804 161.127 262.734 161.127 262.734"/><path class="cls-21" d="M166.272,270.365a1.416,1.416,0,0,1-1.974-.334l-2.611-3.484a1.417,1.417,0,0,1,.233-1.989l3.311-2.481a1.416,1.416,0,0,1,1.974.334l2.611,3.484a1.416,1.416,0,0,1-.233,1.988l-3.311,2.481Z" transform="translate(0 0)"/><polygon class="cls-34" points="165.479 268.541 163.448 265.831 166.023 263.901 168.054 266.611 165.479 268.541 165.479 268.541"/><path class="cls-21" d="M170.624,276.171a1.416,1.416,0,0,1-1.974-.334l-2.611-3.484a1.417,1.417,0,0,1,.233-1.989l3.311-2.481a1.416,1.416,0,0,1,1.974.334l2.611,3.484a1.416,1.416,0,0,1-.233,1.988l-3.311,2.481Z" transform="translate(0 0)"/><polygon class="cls-34" points="169.832 274.347 167.8 271.638 170.375 269.708 172.406 272.418 169.832 274.347 169.832 274.347"/><path class="cls-21" d="M174.977,281.978a1.417,1.417,0,0,1-1.974-.334l-2.611-3.484a1.417,1.417,0,0,1,.233-1.989l3.311-2.481a1.417,1.417,0,0,1,1.974.334l2.611,3.484a1.417,1.417,0,0,1-.233,1.988l-3.311,2.481Z" transform="translate(0 0)"/><polygon class="cls-34" points="174.184 280.154 172.153 277.444 174.727 275.514 176.759 278.224 174.184 280.154 174.184 280.154"/><rect class="cls-37" x="167.217" y="247.921" width="15.281" height="40.203" transform="translate(475.526 377.612) rotate(143.146)"/><rect class="cls-38" x="177.533" y="244.485" width="3.82" height="40.203" transform="translate(481.719 368.674) rotate(143.146)"/></g></g></svg>