<svg id="圖層_1" data-name="圖層 1" xmlns="http://www.w3.org/2000/svg" viewBox="0 0 512 512"><defs><style>.cls-1{fill:#0071bc;}.cls-2{fill:#fff;}.cls-3{fill:#fcee21;}.cls-4{fill:#c69c6d;}.cls-5{fill:#f15a24;}</style></defs><title> Pingpong_512</title><path class="cls-1" d="M481.753,6.009H35.084A26.535,26.535,0,0,0,8.466,32.461V479.539a26.535,26.535,0,0,0,26.618,26.452H481.753a26.535,26.535,0,0,0,26.618-26.452V32.461A26.535,26.535,0,0,0,481.753,6.009Z" transform="translate(0 0)"/><path class="cls-2" d="M479.334,512H32.666A32.6,32.6,0,0,1,0,479.54V32.461A32.6,32.6,0,0,1,32.666,0H479.334A32.6,32.6,0,0,1,512,32.461V479.54A32.6,32.6,0,0,1,479.334,512ZM32.666,12.019A20.531,20.531,0,0,0,12.094,32.461V479.54a20.53,20.53,0,0,0,20.572,20.441H479.334a20.53,20.53,0,0,0,20.572-20.441V32.461a20.531,20.531,0,0,0-20.572-20.443Z" transform="translate(0 0)"/><rect class="cls-2" x="7.146" y="177.884" width="497.407" height="19.223"/><rect class="cls-2" x="7.146" y="229.547" width="497.407" height="19.223"/><rect class="cls-2" x="7.146" y="281.21" width="497.407" height="19.223"/><path class="cls-3" d="M439.432,182.087A105.234,105.234,0,1,0,290.061,307.239l143.46-46.349A104.867,104.867,0,0,0,439.432,182.087Z" transform="translate(0 0)"/><path d="M289.5,313.734l-2.241-1.185a111.23,111.23,0,1,1,157.9-132.3h0a110.668,110.668,0,0,1-6.249,83.3l-1.124,2.272Zm49.837-198.792a99.24,99.24,0,0,0-48.666,185.787L429.22,255.967a99.3,99.3,0,0,0-89.887-141.026Z" transform="translate(0 0)"/><path class="cls-4" d="M433.522,260.891l-143.46,46.349a105.2,105.2,0,0,0,50.021,12.236l24.6,76.728a14.407,14.407,0,0,0,18.065,9.293l32.291-10.354a14.407,14.407,0,0,0,9.293-18.065l-24.6-76.728A105.211,105.211,0,0,0,433.522,260.891Z" transform="translate(0 0)"/><path d="M378.374,412.193a20.471,20.471,0,0,1-19.411-14.155l-23.281-72.609a111.681,111.681,0,0,1-48.427-12.881l-12.587-6.65,170.554-55.1L438.9,263.556a111.7,111.7,0,0,1-32.132,39.078l23.281,72.609a20.417,20.417,0,0,1-13.179,25.62l-32.289,10.353A20.353,20.353,0,0,1,378.374,412.193Zm-33.92-98.762L370.4,394.368a8.4,8.4,0,0,0,10.51,5.407L413.2,389.422a8.4,8.4,0,0,0,5.407-10.508L392.66,297.972l3.618-2.539A99.079,99.079,0,0,0,420.23,271.5L307.046,308.065a98.8,98.8,0,0,0,32.986,5.4Z" transform="translate(0 0)"/><path class="cls-5" d="M208.492,114.009A105.218,105.218,0,0,0,82.852,262.454l141.126,45.595a105.223,105.223,0,0,0-15.487-194.04Z" transform="translate(0 0)"/><path d="M224.487,314.527,78.65,267.409l-1.136-2.2A111.225,111.225,0,0,1,210.328,108.288h0A111.228,111.228,0,0,1,226.7,313.405ZM87.1,257.511l136.334,44.046a99.215,99.215,0,0,0-16.771-181.829h0A99.21,99.21,0,0,0,87.1,257.511Z" transform="translate(0 0)"/><path class="cls-4" d="M115.854,300.35l-24.6,76.728a14.407,14.407,0,0,0,9.293,18.065L132.836,405.5A14.407,14.407,0,0,0,150.9,396.2l24.6-76.728a105.18,105.18,0,0,0,48.477-11.426L82.852,262.454A105.182,105.182,0,0,0,115.854,300.35Z" transform="translate(0 0)"/><path d="M137.212,412.193a20.342,20.342,0,0,1-6.211-.976L98.711,400.864a20.416,20.416,0,0,1-13.181-25.62l23.281-72.609a111.79,111.79,0,0,1-31.3-37.426l-6.681-12.951,168.853,54.552-12.989,6.6a111.8,111.8,0,0,1-46.8,12.024l-23.281,72.609a20.466,20.466,0,0,1-19.409,14.155ZM96.587,273.2A99.087,99.087,0,0,0,119.3,295.433l3.618,2.539L96.972,378.914a8.4,8.4,0,0,0,5.409,10.508l32.289,10.353a8.4,8.4,0,0,0,10.508-5.407l25.954-80.937,4.419.038a98.162,98.162,0,0,0,31-4.738Z" transform="translate(0 0)"/><circle class="cls-2" cx="208.161" cy="195.778" r="25.056"/><path d="M208.162,226.841a31.063,31.063,0,1,1,31.062-31.063A31.1,31.1,0,0,1,208.162,226.841Zm0-50.112a19.049,19.049,0,1,0,19.047,19.049A19.071,19.071,0,0,0,208.162,176.729Z" transform="translate(0 0)"/><path d="M234.541,292l-14.062-4.437,2.168-6.876,14.062,4.437Zm-28.123-8.875-14.062-4.435,2.168-6.876,14.062,4.435Zm-28.124-8.873-14.061-4.435,2.168-6.876,14.061,4.435Zm-28.124-8.873-14.061-4.437,2.171-6.876,14.061,4.437ZM122.048,256.5l-14.062-4.437,2.168-6.876,14.062,4.437Zm-28.123-8.873-14.062-4.437,2.168-6.876,14.062,4.437Z" transform="translate(0 0)"/></svg>