<svg xmlns="http://www.w3.org/2000/svg" xmlns:xlink="http://www.w3.org/1999/xlink" viewBox="0 0 537.411 614.365"><defs><style>.cls-1{fill:none;}.cls-2{isolation:isolate;}.cls-3{fill:#a89685;}.cls-4{fill:#fff;}.cls-5{clip-path:url(#clip-path);}.cls-6{mix-blend-mode:multiply;}.cls-7{clip-path:url(#clip-path-2);}.cls-8{fill:#fefefe;}.cls-9{fill:#fdfdfd;}.cls-10{fill:#fcfcfc;}.cls-11{fill:#fbfbfb;}.cls-12{fill:#fafafa;}.cls-13{fill:#f9f9f9;}.cls-14{fill:#f8f8f8;}.cls-15{fill:#f7f7f7;}.cls-16{fill:#f6f6f6;}.cls-17{fill:#f5f5f5;}.cls-18{fill:#f4f4f4;}.cls-19{fill:#f3f3f3;}.cls-20{fill:#f2f2f2;}.cls-21{fill:#f1f1f1;}.cls-22{fill:#f0f0f0;}.cls-23{fill:#efefef;}.cls-24{fill:#eee;}.cls-25{fill:#ededed;}.cls-26{fill:#ececec;}.cls-27{fill:#ebebeb;}.cls-28{fill:#eaeaea;}.cls-29{fill:#e9e9e9;}.cls-30{fill:#e8e8e8;}.cls-31{fill:#e7e7e7;}.cls-32{fill:#e6e6e6;}.cls-33{fill:#e5e5e5;}.cls-34{fill:#e4e4e4;}.cls-35{fill:#e3e3e3;}.cls-36{fill:#e2e2e2;}.cls-37{fill:#e1e1e1;}.cls-38{fill:#e0e0e0;}.cls-39{fill:#dfdfdf;}.cls-40{fill:#dedede;}.cls-41{fill:#ddd;}.cls-42{fill:#dcdcdc;}.cls-43{fill:#dbdbdb;}.cls-44{fill:#dadada;}.cls-45{fill:#d9d9d9;}.cls-46{fill:#d8d8d8;}.cls-47{fill:#d7d7d7;}.cls-48{fill:#d6d6d6;}.cls-49{fill:#d5d5d5;}.cls-50{fill:#d4d4d4;}.cls-51{fill:#d3d3d3;}.cls-52{fill:#d2d2d2;}.cls-53{fill:#d1d1d1;}.cls-54{fill:#d0d0d0;}.cls-55{fill:#cfcfcf;}.cls-56{fill:#cecece;}.cls-57{fill:#cdcdcd;}.cls-58{fill:#ccc;}.cls-59{fill:#cbcbcb;}.cls-60{fill:#cacaca;}.cls-61{fill:#c9c9c9;}.cls-62{fill:#c8c8c8;}.cls-63{fill:#c7c7c7;}.cls-64{fill:#c6c6c6;}.cls-65{fill:#c5c5c5;}.cls-66{fill:#c4c4c4;}.cls-67{fill:#c3c3c3;}.cls-68{fill:#c2c2c2;}.cls-69{fill:#c1c1c1;}.cls-70{fill:silver;}.cls-71{fill:#bebebe;}.cls-72{fill:#bdbdbd;}.cls-73{fill:#bcbcbc;}.cls-74{fill:#bbb;}.cls-75{fill:#bababa;}.cls-76{fill:#b9b9b9;}.cls-77{fill:#b8b8b8;}.cls-78{fill:#b7b7b7;}.cls-79{fill:#b6b6b6;}.cls-80{fill:#b5b5b5;}.cls-81{fill:#b4b4b4;}.cls-82{fill:#b3b3b3;}.cls-83{fill:#b2b2b2;}.cls-84{fill:#b1b1b1;}.cls-85{fill:#b0b0b0;}.cls-86{fill:#afafaf;}.cls-87{fill:#aeaeae;}.cls-88{fill:#adadad;}.cls-89{fill:#acacac;}.cls-90{fill:#ababab;}.cls-91{fill:#aaa;}.cls-92{fill:#a9a9a9;}.cls-93{fill:#a8a8a8;}.cls-94{fill:#a7a7a7;}.cls-95{fill:#a6a6a6;}.cls-96{fill:#a5a5a5;}.cls-97{fill:#a4a4a4;}.cls-98{fill:#a3a3a3;}.cls-99{fill:#a2a2a2;}.cls-100{fill:#a1a1a1;}.cls-101{fill:#a0a0a0;}.cls-102{fill:#9f9f9f;}.cls-103{fill:#9e9e9e;}.cls-104{fill:#9d9d9d;}.cls-105{fill:#9c9c9c;}.cls-106{fill:#9b9b9b;}.cls-107{fill:#9a9a9a;}.cls-108{fill:#999;}.cls-109{fill:#989898;}.cls-110{fill:#979797;}.cls-111{fill:#969696;}.cls-112{fill:#959595;}.cls-113{fill:#949494;}.cls-114{fill:#939393;}.cls-115{fill:#929292;}.cls-116{fill:#919191;}.cls-117{fill:#909090;}.cls-118{fill:#8f8f8f;}.cls-119{fill:#8e8e8e;}.cls-120{fill:#8d8d8d;}.cls-121{fill:#8c8c8c;}.cls-122{fill:#8b8b8b;}.cls-123{fill:#8a8a8a;}.cls-124{fill:#898989;}.cls-125{fill:#888;}.cls-126{fill:#878787;}.cls-127{fill:#868686;}.cls-128{fill:#858585;}.cls-129{fill:#848484;}.cls-130{fill:#838383;}.cls-131{fill:#828282;}.cls-132{fill:#818181;}.cls-133{fill:gray;}.cls-134{fill:#fbb03b;}.cls-135{fill:#ed1c24;}.cls-136{fill:#c1272d;}.cls-137{fill:#f15a24;}.cls-138{fill:#fcee21;}.cls-139{fill:#39b54a;}</style><clipPath id="clip-path" transform="translate(12.832 36)"><rect class="cls-1" x="8.04" y="6.346" width="496.14" height="499.32" rx="11.005" ry="11.005"/></clipPath><clipPath id="clip-path-2" transform="translate(12.832 36)"><rect class="cls-1" x="88.076" y="401.673" width="350.484" height="9.602" rx="2" ry="2"/></clipPath></defs><title>racingcar_512</title><g class="cls-2"><g id="圖層_2" data-name="圖層 2"><rect x="12.832" y="36" width="512" height="512"/></g><g id="圖層_1" data-name="圖層 1"><path class="cls-3" d="M479.445,6.015H32.776A26.535,26.535,0,0,0,6.158,32.467V479.545A26.535,26.535,0,0,0,32.776,506H479.445a26.535,26.535,0,0,0,26.618-26.452V32.467A26.535,26.535,0,0,0,479.445,6.015Z" transform="translate(12.832 36)"/><path class="cls-4" d="M479.445,512.006H32.776A32.6,32.6,0,0,1,.11,479.546V32.467A32.6,32.6,0,0,1,32.776.006H479.445A32.6,32.6,0,0,1,512.11,32.467V479.546A32.6,32.6,0,0,1,479.445,512.006ZM32.776,12.025A20.531,20.531,0,0,0,12.2,32.467V479.546a20.53,20.53,0,0,0,20.572,20.441H479.445a20.53,20.53,0,0,0,20.572-20.441V32.467a20.531,20.531,0,0,0-20.572-20.443Z" transform="translate(12.832 36)"/><g class="cls-5"><rect class="cls-4" y="307.274" width="76.772" height="76.776"/><rect class="cls-4" y="460.822" width="76.772" height="76.771"/><rect class="cls-4" x="76.772" y="384.05" width="76.774" height="76.772"/><rect class="cls-4" x="76.772" y="537.593" width="76.774" height="76.772"/><rect class="cls-4" x="153.546" y="307.274" width="76.772" height="76.776"/><rect class="cls-4" x="153.546" y="460.822" width="76.772" height="76.771"/><rect class="cls-4" x="230.317" y="384.05" width="76.774" height="76.772"/><rect class="cls-4" x="230.317" y="537.593" width="76.774" height="76.772"/><rect class="cls-4" x="307.091" y="307.274" width="76.774" height="76.776"/><rect class="cls-4" x="307.091" y="460.822" width="76.774" height="76.771"/><rect class="cls-4" x="383.865" y="384.05" width="76.771" height="76.772"/><rect class="cls-4" x="383.865" y="537.593" width="76.771" height="76.772"/><rect class="cls-4" x="460.637" y="307.274" width="76.774" height="76.776"/><rect class="cls-4" x="460.637" y="460.822" width="76.774" height="76.771"/><rect class="cls-4" width="76.772" height="76.776"/><rect class="cls-4" y="153.548" width="76.772" height="76.771"/><rect class="cls-4" x="76.772" y="76.776" width="76.774" height="76.772"/><rect class="cls-4" x="76.772" y="230.319" width="76.774" height="76.772"/><rect class="cls-4" x="153.546" width="76.772" height="76.776"/><rect class="cls-4" x="153.546" y="153.548" width="76.772" height="76.771"/><rect class="cls-4" x="230.317" y="76.776" width="76.774" height="76.772"/><rect class="cls-4" x="230.317" y="230.319" width="76.774" height="76.772"/><rect class="cls-4" x="307.091" width="76.774" height="76.776"/><rect class="cls-4" x="307.091" y="153.548" width="76.774" height="76.771"/><rect class="cls-4" x="383.865" y="76.776" width="76.771" height="76.772"/><rect class="cls-4" x="383.865" y="230.319" width="76.771" height="76.772"/><rect class="cls-4" x="460.637" width="76.774" height="76.776"/><rect class="cls-4" x="460.637" y="153.548" width="76.774" height="76.771"/></g><g class="cls-6"><g class="cls-7"><path class="cls-4" d="M88.076,401.673v0Z" transform="translate(12.832 36)"/><rect class="cls-4" x="100.908" y="437.673" width="2.76" height="9.602"/><rect class="cls-8" x="103.668" y="437.673" width="2.76" height="9.602"/><rect class="cls-9" x="106.427" y="437.673" width="2.76" height="9.602"/><rect class="cls-10" x="109.187" y="437.673" width="2.76" height="9.602"/><rect class="cls-11" x="111.947" y="437.673" width="2.76" height="9.602"/><rect class="cls-12" x="114.706" y="437.673" width="2.76" height="9.602"/><rect class="cls-13" x="117.466" y="437.673" width="2.76" height="9.602"/><rect class="cls-14" x="120.226" y="437.673" width="2.76" height="9.602"/><rect class="cls-15" x="122.986" y="437.673" width="2.76" height="9.602"/><rect class="cls-16" x="125.745" y="437.673" width="2.76" height="9.602"/><rect class="cls-17" x="128.505" y="437.673" width="2.76" height="9.602"/><rect class="cls-18" x="131.265" y="437.673" width="2.76" height="9.602"/><rect class="cls-19" x="134.024" y="437.673" width="2.76" height="9.602"/><rect class="cls-20" x="136.784" y="437.673" width="2.76" height="9.602"/><rect class="cls-21" x="139.544" y="437.673" width="2.76" height="9.602"/><rect class="cls-22" x="142.304" y="437.673" width="2.76" height="9.602"/><rect class="cls-23" x="145.063" y="437.673" width="2.76" height="9.602"/><rect class="cls-24" x="147.823" y="437.673" width="2.76" height="9.602"/><rect class="cls-25" x="150.583" y="437.673" width="2.76" height="9.602"/><rect class="cls-26" x="153.343" y="437.673" width="2.76" height="9.602"/><rect class="cls-27" x="156.102" y="437.673" width="2.76" height="9.602"/><rect class="cls-28" x="158.862" y="437.673" width="2.76" height="9.602"/><rect class="cls-29" x="161.622" y="437.673" width="2.76" height="9.602"/><rect class="cls-30" x="164.381" y="437.673" width="2.76" height="9.602"/><rect class="cls-31" x="167.141" y="437.673" width="2.76" height="9.602"/><rect class="cls-32" x="169.901" y="437.673" width="2.76" height="9.602"/><rect class="cls-33" x="172.661" y="437.673" width="2.76" height="9.602"/><rect class="cls-34" x="175.42" y="437.673" width="2.76" height="9.602"/><rect class="cls-35" x="178.18" y="437.673" width="2.76" height="9.602"/><rect class="cls-36" x="180.94" y="437.673" width="2.76" height="9.602"/><rect class="cls-37" x="183.699" y="437.673" width="2.76" height="9.602"/><rect class="cls-38" x="186.459" y="437.673" width="2.76" height="9.602"/><rect class="cls-39" x="189.219" y="437.673" width="2.76" height="9.602"/><rect class="cls-40" x="191.979" y="437.673" width="2.76" height="9.602"/><rect class="cls-41" x="194.738" y="437.673" width="2.76" height="9.602"/><rect class="cls-42" x="197.498" y="437.673" width="2.76" height="9.602"/><rect class="cls-43" x="200.258" y="437.673" width="2.76" height="9.602"/><rect class="cls-44" x="203.017" y="437.673" width="2.76" height="9.602"/><rect class="cls-45" x="205.777" y="437.673" width="2.76" height="9.602"/><rect class="cls-46" x="208.537" y="437.673" width="2.76" height="9.602"/><rect class="cls-47" x="211.297" y="437.673" width="2.76" height="9.602"/><rect class="cls-48" x="214.056" y="437.673" width="2.76" height="9.602"/><rect class="cls-49" x="216.816" y="437.673" width="2.76" height="9.602"/><rect class="cls-50" x="219.576" y="437.673" width="2.76" height="9.602"/><rect class="cls-51" x="222.336" y="437.673" width="2.76" height="9.602"/><rect class="cls-52" x="225.095" y="437.673" width="2.76" height="9.602"/><rect class="cls-53" x="227.855" y="437.673" width="2.76" height="9.602"/><rect class="cls-54" x="230.615" y="437.673" width="2.76" height="9.602"/><rect class="cls-55" x="233.374" y="437.673" width="2.76" height="9.602"/><rect class="cls-56" x="236.134" y="437.673" width="2.76" height="9.602"/><rect class="cls-57" x="238.894" y="437.673" width="2.76" height="9.602"/><rect class="cls-58" x="241.654" y="437.673" width="2.76" height="9.602"/><rect class="cls-59" x="244.413" y="437.673" width="2.76" height="9.602"/><rect class="cls-60" x="247.173" y="437.673" width="2.76" height="9.602"/><rect class="cls-61" x="249.933" y="437.673" width="2.76" height="9.602"/><rect class="cls-62" x="252.692" y="437.673" width="2.76" height="9.602"/><rect class="cls-63" x="255.452" y="437.673" width="2.76" height="9.602"/><rect class="cls-64" x="258.212" y="437.673" width="2.76" height="9.602"/><rect class="cls-65" x="260.972" y="437.673" width="2.76" height="9.602"/><rect class="cls-66" x="263.731" y="437.673" width="2.76" height="9.602"/><rect class="cls-67" x="266.491" y="437.673" width="2.76" height="9.602"/><rect class="cls-68" x="269.251" y="437.673" width="2.76" height="9.602"/><rect class="cls-69" x="272.01" y="437.673" width="2.76" height="9.602"/><rect class="cls-70" x="274.77" y="437.673" width="2.76" height="9.602"/><rect class="cls-71" x="277.53" y="437.673" width="2.76" height="9.602"/><rect class="cls-72" x="280.29" y="437.673" width="2.76" height="9.602"/><rect class="cls-73" x="283.049" y="437.673" width="2.76" height="9.602"/><rect class="cls-74" x="285.809" y="437.673" width="2.76" height="9.602"/><rect class="cls-75" x="288.569" y="437.673" width="2.76" height="9.602"/><rect class="cls-76" x="291.328" y="437.673" width="2.76" height="9.602"/><rect class="cls-77" x="294.088" y="437.673" width="2.76" height="9.602"/><rect class="cls-78" x="296.848" y="437.673" width="2.76" height="9.602"/><rect class="cls-79" x="299.608" y="437.673" width="2.76" height="9.602"/><rect class="cls-80" x="302.367" y="437.673" width="2.76" height="9.602"/><rect class="cls-81" x="305.127" y="437.673" width="2.76" height="9.602"/><rect class="cls-82" x="307.887" y="437.673" width="2.76" height="9.602"/><rect class="cls-83" x="310.647" y="437.673" width="2.76" height="9.602"/><rect class="cls-84" x="313.406" y="437.673" width="2.76" height="9.602"/><rect class="cls-85" x="316.166" y="437.673" width="2.76" height="9.602"/><rect class="cls-86" x="318.926" y="437.673" width="2.76" height="9.602"/><rect class="cls-87" x="321.685" y="437.673" width="2.76" height="9.602"/><rect class="cls-88" x="324.445" y="437.673" width="2.76" height="9.602"/><rect class="cls-89" x="327.205" y="437.673" width="2.76" height="9.602"/><rect class="cls-90" x="329.965" y="437.673" width="2.76" height="9.602"/><rect class="cls-91" x="332.724" y="437.673" width="2.76" height="9.602"/><rect class="cls-92" x="335.484" y="437.673" width="2.76" height="9.602"/><rect class="cls-93" x="338.244" y="437.673" width="2.76" height="9.602"/><rect class="cls-94" x="341.003" y="437.673" width="2.76" height="9.602"/><rect class="cls-95" x="343.763" y="437.673" width="2.76" height="9.602"/><rect class="cls-96" x="346.523" y="437.673" width="2.76" height="9.602"/><rect class="cls-97" x="349.283" y="437.673" width="2.76" height="9.602"/><rect class="cls-98" x="352.042" y="437.673" width="2.76" height="9.602"/><rect class="cls-99" x="354.802" y="437.673" width="2.76" height="9.602"/><rect class="cls-100" x="357.562" y="437.673" width="2.76" height="9.602"/><rect class="cls-101" x="360.321" y="437.673" width="2.76" height="9.602"/><rect class="cls-102" x="363.081" y="437.673" width="2.76" height="9.602"/><rect class="cls-103" x="365.841" y="437.673" width="2.76" height="9.602"/><rect class="cls-104" x="368.601" y="437.673" width="2.76" height="9.602"/><rect class="cls-105" x="371.36" y="437.673" width="2.76" height="9.602"/><rect class="cls-106" x="374.12" y="437.673" width="2.76" height="9.602"/><rect class="cls-107" x="376.88" y="437.673" width="2.76" height="9.602"/><rect class="cls-108" x="379.64" y="437.673" width="2.76" height="9.602"/><rect class="cls-109" x="382.399" y="437.673" width="2.76" height="9.602"/><rect class="cls-110" x="385.159" y="437.673" width="2.76" height="9.602"/><rect class="cls-111" x="387.919" y="437.673" width="2.76" height="9.602"/><rect class="cls-112" x="390.678" y="437.673" width="2.76" height="9.602"/><rect class="cls-113" x="393.438" y="437.673" width="2.76" height="9.602"/><rect class="cls-114" x="396.198" y="437.673" width="2.76" height="9.602"/><rect class="cls-115" x="398.958" y="437.673" width="2.76" height="9.602"/><rect class="cls-116" x="401.717" y="437.673" width="2.76" height="9.602"/><rect class="cls-117" x="404.477" y="437.673" width="2.76" height="9.602"/><rect class="cls-118" x="407.237" y="437.673" width="2.76" height="9.602"/><rect class="cls-119" x="409.996" y="437.673" width="2.76" height="9.602"/><rect class="cls-120" x="412.756" y="437.673" width="2.76" height="9.602"/><rect class="cls-121" x="415.516" y="437.673" width="2.76" height="9.602"/><rect class="cls-122" x="418.276" y="437.673" width="2.76" height="9.602"/><rect class="cls-123" x="421.035" y="437.673" width="2.76" height="9.602"/><rect class="cls-124" x="423.795" y="437.673" width="2.76" height="9.602"/><rect class="cls-125" x="426.555" y="437.673" width="2.76" height="9.602"/><rect class="cls-126" x="429.314" y="437.673" width="2.76" height="9.602"/><rect class="cls-127" x="432.074" y="437.673" width="2.76" height="9.602"/><rect class="cls-128" x="434.834" y="437.673" width="2.76" height="9.602"/><rect class="cls-129" x="437.594" y="437.673" width="2.76" height="9.602"/><rect class="cls-130" x="440.353" y="437.673" width="2.76" height="9.602"/><rect class="cls-131" x="443.113" y="437.673" width="2.76" height="9.602"/><rect class="cls-132" x="445.873" y="437.673" width="2.76" height="9.602"/><rect class="cls-133" x="448.633" y="437.673" width="2.76" height="9.602"/><path class="cls-133" d="M438.561,411.275v0Z" transform="translate(12.832 36)"/></g></g><path class="cls-134" d="M129.852,189.611,97.685,161.2A142.615,142.615,0,0,0,62.119,264.756l42.837-2.654A99.83,99.83,0,0,1,129.852,189.611Z" transform="translate(12.832 36)"/><path d="M56.5,271.118l-.37-5.99a148.089,148.089,0,0,1,37.058-107.9l3.972-4.5,41.164,36.36-3.974,4.5a93.528,93.528,0,0,0-23.4,68.145l.372,5.99ZM98.306,169.753a135.954,135.954,0,0,0-30.44,88.634l30.893-1.914a105.253,105.253,0,0,1,22.746-66.227Z" transform="translate(12.832 36)"/><path class="cls-135" d="M271.206,180.853l28.413-32.167A142.615,142.615,0,0,0,196.061,113.12l2.654,42.837A99.831,99.831,0,0,1,271.206,180.853Z" transform="translate(12.832 36)"/><path d="M271.731,189.324l-4.5-3.974a93.587,93.587,0,0,0-68.147-23.4l-5.99.372L189.7,107.5l5.99-.372a148.05,148.05,0,0,1,107.9,37.058l4.5,3.972Zm-66.677-39.565a105.246,105.246,0,0,1,65.518,22.747l20.492-23.2a135.827,135.827,0,0,0-88.634-30.44l1.914,30.893Z" transform="translate(12.832 36)"/><path class="cls-136" d="M304.86,249.716l42.837-2.654a142.615,142.615,0,0,0-48.078-98.376l-28.413,32.167A99.83,99.83,0,0,1,304.86,249.716Z" transform="translate(12.832 36)"/><path d="M299.24,256.077l-.37-5.99a93.527,93.527,0,0,0-31.638-64.737l-4.5-3.972,36.359-41.163,4.5,3.974a148.088,148.088,0,0,1,50.094,102.5l.372,5.991Zm-19.673-75.625a105.25,105.25,0,0,1,30.747,62.913l30.895-1.914a135.954,135.954,0,0,0-41.15-84.2Z" transform="translate(12.832 36)"/><path class="cls-137" d="M198.715,155.957l-2.654-42.837A142.615,142.615,0,0,0,97.685,161.2l32.167,28.413A99.831,99.831,0,0,1,198.715,155.957Z" transform="translate(12.832 36)"/><path d="M130.377,198.083l-41.164-36.36,3.974-4.5a148.089,148.089,0,0,1,102.5-50.093l5.99-.372,3.4,54.817-5.99.37a93.53,93.53,0,0,0-64.737,31.638Zm-24.125-37.325,23.2,20.493A105.24,105.24,0,0,1,192.364,150.5l-1.915-30.895A135.952,135.952,0,0,0,106.252,160.758Z" transform="translate(12.832 36)"/><path class="cls-138" d="M104.956,262.1l-42.837,2.654A142.615,142.615,0,0,0,110.2,363.132l28.413-32.167A99.83,99.83,0,0,1,104.956,262.1Z" transform="translate(12.832 36)"/><path d="M110.722,371.6l-4.5-3.974a148.093,148.093,0,0,1-50.094-102.5l-.372-5.99,54.816-3.4.372,5.99a93.536,93.536,0,0,0,31.639,64.737l4.5,3.972ZM68.608,270.368a135.96,135.96,0,0,0,41.15,84.2l20.492-23.2A105.247,105.247,0,0,1,99.5,268.452Z" transform="translate(12.832 36)"/><path class="cls-137" d="M212.873,250l-35.239-63.631,13.98,71.381A16.918,16.918,0,1,0,212.873,250Z" transform="translate(12.832 36)"/><path d="M206.531,287.4a21.705,21.705,0,0,1-19.933-30.28l-19.536-99.752,49.245,88.921a21.723,21.723,0,0,1-9.776,41.111Zm-18.326-72.031,8.447,43.127-.8,1.5a12.117,12.117,0,1,0,15.218-5.548l-1.577-.636Z" transform="translate(12.832 36)"/><path d="M460.063,352.731c-.259,28.41-22.411,51.166-49.477,50.827s-48.8-23.644-48.538-52.054,22.411-51.166,49.477-50.827S460.322,324.321,460.063,352.731Z" transform="translate(12.832 36)"/><path d="M411.185,409.564c-.225,0-.449,0-.674,0-30.321-.38-54.754-26.446-54.465-58.11A58.014,58.014,0,0,1,373.4,310.157a53.542,53.542,0,0,1,38.2-15.481c30.321.38,54.754,26.447,54.465,58.11l-6-.055,6,.055a58.014,58.014,0,0,1-17.353,41.294A53.4,53.4,0,0,1,411.185,409.564Zm-.254-102.888a41.481,41.481,0,0,0-29.139,12.06,46.094,46.094,0,0,0-13.744,32.824c-.229,25.067,18.887,45.7,42.613,46A41.635,41.635,0,0,0,440.317,385.5a46.1,46.1,0,0,0,13.745-32.826h0c.229-25.065-18.887-45.7-42.613-46C411.276,306.677,411.1,306.675,410.931,306.675Z" transform="translate(12.832 36)"/><path d="M182.922,359.718c-.192,21.078-16.627,37.962-36.709,37.71s-36.2-17.542-36.012-38.62,16.627-37.962,36.709-37.71S183.114,338.64,182.922,359.718Z" transform="translate(12.832 36)"/><path d="M146.656,403.433c-.173,0-.345,0-.518,0-23.347-.3-42.16-20.337-41.939-44.678a44.584,44.584,0,0,1,13.339-31.729A41.674,41.674,0,0,1,146.984,315.1c23.347.293,42.16,20.336,41.939,44.678A44.586,44.586,0,0,1,175.584,391.5,41.159,41.159,0,0,1,146.656,403.433Zm-.185-76.337a29.244,29.244,0,0,0-20.537,8.506,32.659,32.659,0,0,0-9.731,23.26c-.162,17.744,13.334,32.354,30.087,32.565a29.312,29.312,0,0,0,20.9-8.5,32.663,32.663,0,0,0,9.731-23.261l6,.055-6-.055c.162-17.746-13.334-32.355-30.086-32.565C146.713,327.1,146.592,327.1,146.471,327.1Z" transform="translate(12.832 36)"/><path class="cls-4" d="M163.652,359.477c-.09,9.908-7.816,17.844-17.255,17.726s-17.018-8.246-16.928-18.154,7.816-17.844,17.255-17.726S163.743,349.569,163.652,359.477Z" transform="translate(12.832 36)"/><path class="cls-4" d="M428.146,352.332c-.09,9.908-7.816,17.844-17.255,17.726s-17.018-8.246-16.928-18.154,7.816-17.844,17.255-17.726S428.237,342.424,428.146,352.332Z" transform="translate(12.832 36)"/><path d="M237.325,346.512a8.415,8.415,0,0,1-3.485-.761,8.663,8.663,0,0,1-4.542-4.943l-8.932-24.91a8.746,8.746,0,0,1,4.935-11.037l.424-.168a8.368,8.368,0,0,1,6.572.175,8.669,8.669,0,0,1,4.541,4.945l8.931,24.906a8.747,8.747,0,0,1-4.927,11.034l-.428.169A8.442,8.442,0,0,1,237.325,346.512Z" transform="translate(12.832 36)"/><path d="M319.179,328.033a8.525,8.525,0,0,1-5.937-2.431,8.678,8.678,0,0,1-2.61-5.935l-.922-26.573a8.616,8.616,0,0,1,8.227-8.956l.454-.016a8.463,8.463,0,0,1,6.076,2.28,8.66,8.66,0,0,1,2.763,6.08l.922,26.574a8.618,8.618,0,0,1-8.223,8.956l-.458.016C319.373,328.032,319.276,328.033,319.179,328.033Z" transform="translate(12.832 36)"/><path class="cls-139" d="M260.968,298.389c1.568-5.963,4.737-14.442,18.56-15.236,13-.747,22.05,6.076,19.978,31.186l-.088,9.666s-11.016-4-16.612,3.659-20.313,5.546-22.1-.277S259.719,303.137,260.968,298.389Z" transform="translate(12.832 36)"/><path d="M271.456,337.412a22.831,22.831,0,0,1-3.761-.306c-5.96-1-10.289-4.106-11.58-8.308-2.131-6.933-1.191-26.3.211-31.631,1.276-4.859,4.669-17.759,22.927-18.807,7.756-.458,13.877,1.566,18.185,5.982,5.783,5.93,8.032,15.816,6.868,30.216l-.15,16.28-6.379-2.32c-.05-.019-7.72-2.64-11.093,1.977C282.922,335.648,276.753,337.412,271.456,337.412Zm9.908-49.512q-.756,0-1.56.046c-10.425.6-12.727,6.091-14.192,11.663h0c-1.126,4.281-1.736,21.755-.319,26.368.215.346,2.058,1.642,5.51,1.825,2.782.145,6.362-.554,8.125-2.969,4.161-5.7,10.454-7.006,15.742-6.653l.052-4.236c.927-11.24-.511-19.159-4.159-22.9C288.5,288.935,285.485,287.9,281.364,287.9Z" transform="translate(12.832 36)"/><path d="M260.93,301s.915,2.236,4.6,2.282,27.663-3.521,27.663-3.521-1.93,9.643-7.473,11.508-16.647,7.526-20.313,5.546a17.584,17.584,0,0,1-5.714-5.026Z" transform="translate(12.832 36)"/><path d="M267.428,319.624a6.556,6.556,0,0,1-3.164-.7,20.023,20.023,0,0,1-6.566-5.8l-.493-.734,2.406-20.949,3.5,8.554c.109.165.668.86,2.445.883h.06c2.726,0,17.729-2.083,27.221-3.5l3.377-.5-.67,3.348c-.225,1.126-2.4,11.07-9.062,13.312-1.316.443-3.038,1.142-4.861,1.881C275.7,317.824,270.922,319.624,267.428,319.624Zm-5.242-8.531a15.462,15.462,0,0,0,4.359,3.607c1.747.951,9.535-2.21,13.272-3.726,1.893-.768,3.681-1.493,5.135-1.982,2.234-.751,3.869-3.731,4.86-6.311-7.052,1.023-21.29,3.009-24.314,3a9.7,9.7,0,0,1-2.647-.377Z" transform="translate(12.832 36)"/><path class="cls-139" d="M312.834,368.377l.159-17.406c.119-13.027-8.074-24.216-19.357-27.991-3.534-.126-7.913.69-10.83,4.684-5.6,7.664-20.313,5.546-22.1-.277a15.629,15.629,0,0,1-.413-1.878,29.236,29.236,0,0,0-13.629,24.631l-.159,17.406Z" transform="translate(12.832 36)"/><path d="M317.591,373.239l-75.932-.951.2-22.19a33.825,33.825,0,0,1,15.9-28.669l6.071-3.765,1.193,7.043a10.636,10.636,0,0,0,.267,1.264c.216.352,2.059,1.648,5.511,1.831,2.782.145,6.362-.554,8.125-2.969,3.343-4.578,8.5-6.895,14.877-6.651l.7.025.659.22c13.461,4.5,22.769,17.9,22.634,32.588Zm-66.243-10.433,56.73.71.114-12.588c.095-10.324-6.207-19.739-15.407-23.157-4.153.055-5.606,2.048-6.1,2.725-4.7,6.441-13.169,7.587-18.989,6.61a16.675,16.675,0,0,1-9.035-4.209,24.9,24.9,0,0,0-7.2,17.289Z" transform="translate(12.832 36)"/><path class="cls-139" d="M117.039,337.7l-22.5,5.076s-9.516,3.2-31.739,12.879c-.076,8.3,14.062,18.431,14.062,18.431s14.583.4,36.346,1.019a39.668,39.668,0,0,1-3.011-15.538A39.147,39.147,0,0,1,117.039,337.7Z" transform="translate(12.832 36)"/><path d="M122.285,381.373l-9.251-.265c-21.758-.621-36.337-1.02-36.339-1.02l-1.838-.049-1.495-1.071c-2.784-2-16.666-12.5-16.567-23.363l.035-3.894,3.569-1.554c22.207-9.673,31.825-12.932,32.224-13.066l.593-.166,37.434-8.443L121.987,341.1a33.115,33.115,0,0,0-5.792,18.525,33.569,33.569,0,0,0,2.556,13.194Zm-43.346-13.23c3.842.105,13.242.366,26.131.731a45.932,45.932,0,0,1,1.2-22.589L96.181,348.56c-1.545.54-9.727,3.468-26.038,10.462A43.2,43.2,0,0,0,78.938,368.143Z" transform="translate(12.832 36)"/><path class="cls-139" d="M360.187,339.466c1.657-8.277,11.278-23.092,11.278-23.092s-31.588-3.714-39.492-3.813-17.42,3.1-17.481,9.739-1.687,11.6-4.879,14.875-71.186,4.088-75.913,2.369-10.9-18.391-15.612-21.77c-4.483-3.214-49.138,8.082-53.471,9.189a38.63,38.63,0,0,1,18.3,33.519,39.418,39.418,0,0,1-3.815,16.567c59.7,1.818,123.693,3.967,125.362,4.869,3.147,1.7,7.859,5.077,7.859,5.077l63.236.791C359.869,374.312,358.53,347.743,360.187,339.466Z" transform="translate(12.832 36)"/><path d="M392,393.993l-81.64-1.022-1.534-1.1c-1.091-.783-4.131-2.891-6.4-4.217-4.493-.478-27.48-1.681-123.5-4.607l-9.17-.279,3.93-8.292a33.269,33.269,0,0,0,3.236-14.049,32.713,32.713,0,0,0-15.4-28.33l-12.247-7.408,13.868-3.542c51.585-13.174,56.055-9.972,58.452-8.253,3.262,2.338,5.891,6.992,8.934,12.38,1.55,2.743,4.067,7.2,5.459,8.617,8.845,1.265,60.665.392,70.039-1.734,1.6-2.179,2.436-5.507,2.476-9.914A12.926,12.926,0,0,1,312.567,313c4.97-4.862,13.357-6.468,19.481-6.437,8.125.1,38.816,3.7,40.118,3.854l9.588,1.128-5.255,8.1c-3.48,5.364-9.389,15.808-10.429,21h0c-1.511,7.55.256,31.3,13.4,42.589ZM301.613,387.2l0,0Zm12.635-6.184,48.441.607c-9.589-15.884-9.817-36.183-8.386-43.335h0c1.014-5.071,4.314-11.77,7.23-17-10.661-1.18-25.019-2.664-29.636-2.722-4.428-.013-9.123,1.24-10.935,3.014-.465.455-.467.673-.468.778-.075,8.2-2.289,14.6-6.579,19.007-1.846,1.9-3.936,4.042-41.549,4.873-8.366.183-36.026.654-40.715-1.049-4.4-1.6-7.266-6.365-11.583-14.006a70.366,70.366,0,0,0-4.961-8c-4.493-.209-19.632,2.538-37.6,6.789A45.571,45.571,0,0,1,187.527,371.3c116.548,3.582,117.912,4.321,119.789,5.336C309.592,377.866,312.488,379.8,314.248,381.015Zm-98.4-57.755Z" transform="translate(12.832 36)"/></g></g></svg>